# 3ds Max Wavefront OBJ Exporter v0.99 - (c)2007 guruware
# File Created: 30.11.2023 19:28:31

mtllib Cajón.mtl

#
# object Cajón
#

v  -2.7203 0.0000 7.6066
v  -2.7203 0.0000 0.0659
v  2.7364 0.0000 0.0659
v  2.7364 0.0000 7.6065
v  2.7364 0.9982 7.6066
v  2.7364 0.9982 0.0659
v  -2.7203 0.9982 0.0659
v  -2.7203 0.9982 7.6065
v  -2.7203 0.0000 15.1472
v  2.7364 0.0000 15.1472
v  2.7364 0.9982 15.1472
v  -2.7203 0.9982 15.1472
v  2.7364 0.0000 -15.0155
v  -2.7203 0.0000 -15.0155
v  -2.7203 0.9982 -15.0155
v  2.7364 0.9982 -15.0155
v  -2.7203 0.0000 -7.4748
v  -2.7203 0.9982 -7.4748
v  3.4378 0.0000 7.6066
v  3.4378 0.0000 0.0659
v  8.8945 0.0000 0.0659
v  8.8945 0.0000 7.6065
v  8.8945 0.9982 7.6066
v  8.8945 0.9982 0.0659
v  3.4378 0.9982 0.0659
v  3.4378 0.9982 7.6065
v  3.4378 0.0000 15.1472
v  8.8945 0.0000 15.1472
v  8.8945 0.9982 15.1472
v  3.4378 0.9982 15.1472
v  8.8945 0.0000 -15.0155
v  3.4378 0.0000 -15.0155
v  3.4378 0.9982 -15.0155
v  8.8945 0.9982 -15.0155
v  3.4378 0.0000 -7.4748
v  3.4378 0.9982 -7.4748
v  -8.9851 0.0000 7.6066
v  -8.9851 0.0000 0.0659
v  -3.5284 0.0000 0.0659
v  -3.5284 0.0000 7.6065
v  -3.5284 0.9982 7.6066
v  -3.5284 0.9982 0.0659
v  -8.9851 0.9982 0.0659
v  -8.9851 0.9982 7.6065
v  -8.9851 0.0000 15.1472
v  -3.5284 0.0000 15.1472
v  -3.5284 0.9982 15.1472
v  -8.9851 0.9982 15.1472
v  -3.5284 0.0000 -15.0155
v  -8.9851 0.0000 -15.0155
v  -8.9851 0.9982 -15.0155
v  -3.5284 0.9982 -15.0155
v  -8.9851 0.0000 -7.4748
v  -8.9851 0.9982 -7.4748
v  -3.3839 5.4746 -16.2551
v  3.4166 5.4746 -16.2551
v  3.4166 0.0179 -16.2551
v  -3.3839 0.0179 -16.2551
v  -3.3839 0.0179 -15.2569
v  3.4166 0.0179 -15.2568
v  3.4166 5.4746 -15.2568
v  -3.3839 5.4746 -15.2569
v  -10.1845 5.4746 -16.2551
v  -10.1845 0.0179 -16.2551
v  -10.1845 0.0179 -15.2569
v  -10.1845 5.4746 -15.2569
v  10.2172 0.0179 -16.2551
v  10.2172 5.4746 -16.2551
v  10.2172 5.4746 -15.2568
v  10.2172 0.0179 -15.2568
v  -3.3839 11.6327 -16.2551
v  3.4166 11.6327 -16.2551
v  3.4166 6.1760 -16.2551
v  -3.3839 6.1760 -16.2551
v  -3.3839 6.1760 -15.2569
v  3.4166 6.1760 -15.2568
v  3.4166 11.6327 -15.2568
v  -3.3839 11.6327 -15.2569
v  -10.1845 11.6327 -16.2551
v  -10.1845 6.1760 -16.2551
v  -10.1845 6.1760 -15.2569
v  -10.1845 11.6327 -15.2569
v  10.2172 6.1760 -16.2551
v  10.2172 11.6327 -16.2551
v  10.2172 11.6327 -15.2568
v  10.2172 6.1760 -15.2568
v  -10.2172 11.6192 7.6066
v  -10.2172 11.6192 0.0659
v  -10.2172 6.1625 0.0659
v  -10.2172 6.1625 7.6065
v  -9.2190 6.1625 7.6066
v  -9.2190 6.1625 0.0659
v  -9.2190 11.6192 0.0659
v  -9.2190 11.6192 7.6065
v  -10.2172 11.6192 15.1472
v  -10.2172 6.1625 15.1472
v  -9.2190 6.1625 15.1472
v  -9.2190 11.6192 15.1472
v  -10.2172 6.1625 -15.0155
v  -10.2172 11.6192 -15.0155
v  -9.2190 11.6192 -15.0155
v  -9.2190 6.1625 -15.0155
v  -10.2172 11.6192 -7.4748
v  -9.2190 11.6192 -7.4748
v  -10.2172 5.4611 7.6066
v  -10.2172 5.4611 0.0659
v  -10.2172 0.0044 0.0659
v  -10.2172 0.0044 7.6065
v  -9.2190 0.0044 7.6066
v  -9.2190 0.0044 0.0659
v  -9.2190 5.4611 0.0659
v  -9.2190 5.4611 7.6065
v  -10.2172 5.4611 15.1472
v  -10.2172 0.0044 15.1472
v  -9.2190 0.0044 15.1472
v  -9.2190 5.4611 15.1472
v  -10.2172 0.0044 -15.0155
v  -10.2172 5.4611 -15.0155
v  -9.2190 5.4611 -15.0155
v  -9.2190 0.0044 -15.0155
v  -10.2172 5.4611 -7.4748
v  -9.2190 5.4611 -7.4748
v  9.2152 11.6327 7.6066
v  9.2152 11.6327 0.0659
v  9.2152 6.1760 0.0659
v  9.2152 6.1760 7.6065
v  10.2134 6.1760 7.6066
v  10.2134 6.1760 0.0659
v  10.2134 11.6327 0.0659
v  10.2134 11.6327 7.6065
v  9.2152 11.6327 15.1472
v  9.2152 6.1760 15.1472
v  10.2134 6.1760 15.1472
v  10.2134 11.6327 15.1472
v  9.2152 6.1760 -15.0155
v  9.2152 11.6327 -15.0155
v  10.2134 11.6327 -15.0155
v  10.2134 6.1760 -15.0155
v  9.2152 11.6327 -7.4748
v  10.2134 11.6327 -7.4748
v  9.2152 5.4746 7.6066
v  9.2152 5.4746 0.0659
v  9.2152 0.0179 0.0659
v  9.2152 0.0179 7.6065
v  10.2134 0.0179 7.6066
v  10.2134 0.0179 0.0659
v  10.2134 5.4746 0.0659
v  10.2134 5.4746 7.6065
v  9.2152 5.4746 15.1472
v  9.2152 0.0179 15.1472
v  10.2134 0.0179 15.1472
v  10.2134 5.4746 15.1472
v  9.2152 0.0179 -15.0155
v  9.2152 5.4746 -15.0155
v  10.2134 5.4746 -15.0155
v  10.2134 0.0179 -15.0155
v  9.2152 5.4746 -7.4748
v  10.2134 5.4746 -7.4748
v  -3.3839 11.6327 15.2568
v  3.4166 11.6327 15.2568
v  3.4166 6.1760 15.2568
v  -3.3839 6.1760 15.2568
v  -3.3839 6.1760 16.2551
v  3.4166 6.1760 16.2551
v  3.4166 11.6327 16.2551
v  -3.3839 11.6327 16.2551
v  -10.1845 11.6327 15.2568
v  -10.1845 6.1760 15.2568
v  -10.1845 6.1760 16.2551
v  -10.1845 11.6327 16.2551
v  10.2172 6.1760 15.2568
v  10.2172 11.6327 15.2568
v  10.2172 11.6327 16.2551
v  10.2172 6.1760 16.2551
v  -3.3839 5.4746 15.2568
v  3.4166 5.4746 15.2568
v  3.4166 0.0179 15.2568
v  -3.3839 0.0179 15.2568
v  -3.3839 0.0179 16.2551
v  3.4166 0.0179 16.2551
v  3.4166 5.4746 16.2551
v  -3.3839 5.4746 16.2551
v  -10.1845 5.4746 15.2568
v  -10.1845 0.0179 15.2568
v  -10.1845 0.0179 16.2551
v  -10.1845 5.4746 16.2551
v  10.2172 0.0179 15.2568
v  10.2172 5.4746 15.2568
v  10.2172 5.4746 16.2551
v  10.2172 0.0179 16.2551
v  9.2152 6.1760 -7.4748
v  10.2134 6.1760 -7.4748
v  9.2152 0.0179 -7.4748
v  10.2134 0.0179 -7.4748
v  -10.2172 6.1625 -7.4748
v  -9.2190 6.1625 -7.4748
v  -10.2172 0.0044 -7.4748
v  -9.2190 0.0044 -7.4748
v  2.7364 0.0000 -7.4748
v  2.7364 0.9982 -7.4748
v  8.8945 0.0000 -7.4748
v  8.8945 0.9982 -7.4748
v  -3.5284 0.0000 -7.4748
v  -3.5284 0.9982 -7.4748
# 204 vertices

vn -0.7071 -0.7071 -0.0000
vn 0.7071 -0.7071 -0.0000
vn 0.7071 0.7071 -0.0000
vn -0.7071 0.7071 -0.0000
vn -0.5774 -0.5774 0.5774
vn 0.5774 -0.5774 0.5774
vn 0.5774 0.5774 0.5774
vn -0.5774 0.5774 0.5774
vn 0.5774 -0.5774 -0.5774
vn -0.5774 -0.5774 -0.5774
vn -0.5774 0.5774 -0.5774
vn 0.5774 0.5774 -0.5774
vn 0.0000 0.7071 -0.7071
vn -0.0000 -0.7071 -0.7071
vn -0.0000 -0.7071 0.7071
vn -0.0000 0.7071 0.7071
vn 0.0000 0.7071 0.7071
# 17 vertex normals

vt 1.0000 0.2500 0.0000
vt 1.0000 0.5000 0.0000
vt 0.0000 0.5000 0.0000
vt 0.0000 0.2500 0.0000
vt 0.0000 0.0000 0.0000
vt 1.0000 0.0000 0.0000
vt 1.0000 1.0000 0.0000
vt 0.0000 1.0000 0.0000
vt 0.2500 0.0000 0.0000
vt 0.5000 0.0000 0.0000
vt 0.5000 1.0000 0.0000
vt 0.2500 1.0000 0.0000
vt 1.0000 0.3333 0.0000
vt 1.0000 0.6667 0.0000
vt 0.0000 0.6667 0.0000
vt 0.0000 0.3333 0.0000
vt 0.3333 0.0000 0.0000
vt 0.6667 0.0000 0.0000
vt 0.6667 1.0000 0.0000
vt 0.3333 1.0000 0.0000
vt 1.0000 0.7500 0.0000
vt 0.0000 0.7500 0.0000
vt 0.7500 0.0000 0.0000
vt 0.7500 1.0000 0.0000
# 24 texture coords

o Cajón
g Cajón
usemtl wire_255236169
s 2
f 1/1/1 2/2/1 3/3/2 4/4/2 
s 4
f 5/1/3 6/2/3 7/3/4 8/4/4 
s 8
f 9/5/5 10/6/6 11/7/7 12/8/8 
s 16
f 4/9/2 3/10/2 6/11/3 5/12/3 
s 32
f 13/5/9 14/6/10 15/7/11 16/8/12 
s 64
f 17/9/1 2/10/1 7/11/4 18/12/4 
s 2
f 19/1/1 20/2/1 21/3/2 22/4/2 
s 4
f 23/1/3 24/2/3 25/3/4 26/4/4 
s 8
f 27/5/5 28/6/6 29/7/7 30/8/8 
s 16
f 22/9/2 21/10/2 24/11/3 23/12/3 
s 32
f 31/5/9 32/6/10 33/7/11 34/8/12 
s 64
f 35/9/1 20/10/1 25/11/4 36/12/4 
s 2
f 37/1/1 38/2/1 39/3/2 40/4/2 
s 4
f 41/1/3 42/2/3 43/3/4 44/4/4 
s 8
f 45/5/5 46/6/6 47/7/7 48/8/8 
s 16
f 40/9/2 39/10/2 42/11/3 41/12/3 
s 32
f 49/5/9 50/6/10 51/7/11 52/8/12 
s 64
f 53/9/1 38/10/1 43/11/4 54/12/4 
s 2
f 55/13/13 56/14/13 57/15/14 58/16/14 
s 4
f 59/13/15 60/14/15 61/15/16 62/16/16 
s 8
f 63/5/11 64/6/10 65/7/5 66/8/8 
s 16
f 58/17/14 57/18/14 60/19/15 59/20/15 
s 32
f 67/5/9 68/6/12 69/7/7 70/8/6 
s 64
f 56/17/13 55/18/13 62/19/16 61/20/16 
s 2
f 71/13/13 72/14/13 73/15/14 74/16/14 
s 4
f 75/13/15 76/14/15 77/15/17 78/16/17 
s 8
f 79/5/11 80/6/10 81/7/5 82/8/8 
s 16
f 74/17/14 73/18/14 76/19/15 75/20/15 
s 32
f 83/5/9 84/6/12 85/7/7 86/8/6 
s 64
f 72/17/13 71/18/13 78/19/17 77/20/17 
s 2
f 87/1/4 88/2/4 89/3/1 90/4/1 
s 4
f 91/1/2 92/2/2 93/3/3 94/4/3 
s 8
f 95/5/8 96/6/5 97/7/6 98/8/7 
s 16
f 90/9/1 89/10/1 92/11/2 91/12/2 
s 32
f 99/5/10 100/6/11 101/7/12 102/8/9 
s 64
f 103/9/4 88/10/4 93/11/3 104/12/3 
s 2
f 105/1/4 106/2/4 107/3/1 108/4/1 
s 4
f 109/1/2 110/2/2 111/3/3 112/4/3 
s 8
f 113/5/8 114/6/5 115/7/6 116/8/7 
s 16
f 108/9/1 107/10/1 110/11/2 109/12/2 
s 32
f 117/5/10 118/6/11 119/7/12 120/8/9 
s 64
f 121/9/4 106/10/4 111/11/3 122/12/3 
s 2
f 123/1/4 124/2/4 125/3/1 126/4/1 
s 4
f 127/1/2 128/2/2 129/3/3 130/4/3 
s 8
f 131/5/8 132/6/5 133/7/6 134/8/7 
s 16
f 126/9/1 125/10/1 128/11/2 127/12/2 
s 32
f 135/5/10 136/6/11 137/7/12 138/8/9 
s 64
f 139/9/4 124/10/4 129/11/3 140/12/3 
s 2
f 141/1/4 142/2/4 143/3/1 144/4/1 
s 4
f 145/1/2 146/2/2 147/3/3 148/4/3 
s 8
f 149/5/8 150/6/5 151/7/6 152/8/7 
s 16
f 144/9/1 143/10/1 146/11/2 145/12/2 
s 32
f 153/5/10 154/6/11 155/7/12 156/8/9 
s 64
f 157/9/4 142/10/4 147/11/3 158/12/3 
s 2
f 159/13/13 160/14/13 161/15/14 162/16/14 
s 4
f 163/13/15 164/14/15 165/15/17 166/16/17 
s 8
f 167/5/11 168/6/10 169/7/5 170/8/8 
s 16
f 162/17/14 161/18/14 164/19/15 163/20/15 
s 32
f 171/5/9 172/6/12 173/7/7 174/8/6 
s 64
f 160/17/13 159/18/13 166/19/17 165/20/17 
s 2
f 175/13/13 176/14/13 177/15/14 178/16/14 
s 4
f 179/13/15 180/14/15 181/15/16 182/16/16 
s 8
f 183/5/11 184/6/10 185/7/5 186/8/8 
s 16
f 178/17/14 177/18/14 180/19/15 179/20/15 
s 32
f 187/5/9 188/6/12 189/7/7 190/8/6 
s 64
f 176/17/13 175/18/13 182/19/16 181/20/16 
s 2
f 160/14/13 172/7/12 171/8/9 161/15/14 
f 162/16/14 168/5/10 167/6/11 159/13/13 
s 4
f 164/14/15 174/7/6 173/8/7 165/15/17 
f 166/16/17 170/5/8 169/6/5 163/13/15 
s 16
f 161/18/14 171/6/9 174/7/6 164/19/15 
f 163/20/15 169/8/5 168/5/10 162/17/14 
s 64
f 159/18/13 167/6/11 170/7/8 166/19/17 
f 165/20/17 173/8/7 172/5/12 160/17/13 
s 2
f 176/14/13 188/7/12 187/8/9 177/15/14 
f 178/16/14 184/5/10 183/6/11 175/13/13 
s 4
f 180/14/15 190/7/6 189/8/7 181/15/16 
f 182/16/16 186/5/8 185/6/5 179/13/15 
s 16
f 177/18/14 187/6/9 190/7/6 180/19/15 
f 179/20/15 185/8/5 184/5/10 178/17/14 
s 64
f 175/18/13 183/6/11 186/7/8 182/19/16 
f 181/20/16 189/8/7 188/5/12 176/17/13 
s 2
f 139/21/4 136/7/11 135/8/10 191/22/1 
f 124/2/4 139/21/4 191/22/1 125/3/1 
f 126/4/1 132/5/5 131/6/8 123/1/4 
s 4
f 192/21/2 138/7/9 137/8/12 140/22/3 
f 128/2/2 192/21/2 140/22/3 129/3/3 
f 130/4/3 134/5/7 133/6/6 127/1/2 
s 16
f 191/23/1 135/6/10 138/7/9 192/24/2 
f 125/10/1 191/23/1 192/24/2 128/11/2 
f 127/12/2 133/8/6 132/5/5 126/9/1 
s 64
f 123/23/4 131/6/8 134/7/7 130/24/3 
f 124/10/4 123/23/4 130/24/3 129/11/3 
f 140/12/3 137/8/12 136/5/11 139/9/4 
s 2
f 157/21/4 154/7/11 153/8/10 193/22/1 
f 142/2/4 157/21/4 193/22/1 143/3/1 
f 144/4/1 150/5/5 149/6/8 141/1/4 
s 4
f 194/21/2 156/7/9 155/8/12 158/22/3 
f 146/2/2 194/21/2 158/22/3 147/3/3 
f 148/4/3 152/5/7 151/6/6 145/1/2 
s 16
f 193/23/1 153/6/10 156/7/9 194/24/2 
f 143/10/1 193/23/1 194/24/2 146/11/2 
f 145/12/2 151/8/6 150/5/5 144/9/1 
s 64
f 141/23/4 149/6/8 152/7/7 148/24/3 
f 142/10/4 141/23/4 148/24/3 147/11/3 
f 158/12/3 155/8/12 154/5/11 157/9/4 
s 2
f 103/21/4 100/7/11 99/8/10 195/22/1 
f 88/2/4 103/21/4 195/22/1 89/3/1 
f 90/4/1 96/5/5 95/6/8 87/1/4 
s 4
f 196/21/2 102/7/9 101/8/12 104/22/3 
f 92/2/2 196/21/2 104/22/3 93/3/3 
f 94/4/3 98/5/7 97/6/6 91/1/2 
s 16
f 195/23/1 99/6/10 102/7/9 196/24/2 
f 89/10/1 195/23/1 196/24/2 92/11/2 
f 91/12/2 97/8/6 96/5/5 90/9/1 
s 64
f 87/23/4 95/6/8 98/7/7 94/24/3 
f 88/10/4 87/23/4 94/24/3 93/11/3 
f 104/12/3 101/8/12 100/5/11 103/9/4 
s 2
f 121/21/4 118/7/11 117/8/10 197/22/1 
f 106/2/4 121/21/4 197/22/1 107/3/1 
f 108/4/1 114/5/5 113/6/8 105/1/4 
s 4
f 198/21/2 120/7/9 119/8/12 122/22/3 
f 110/2/2 198/21/2 122/22/3 111/3/3 
f 112/4/3 116/5/7 115/6/6 109/1/2 
s 16
f 197/23/1 117/6/10 120/7/9 198/24/2 
f 107/10/1 197/23/1 198/24/2 110/11/2 
f 109/12/2 115/8/6 114/5/5 108/9/1 
s 64
f 105/23/4 113/6/8 116/7/7 112/24/3 
f 106/10/4 105/23/4 112/24/3 111/11/3 
f 122/12/3 119/8/12 118/5/11 121/9/4 
s 2
f 72/14/13 84/7/12 83/8/9 73/15/14 
f 74/16/14 80/5/10 79/6/11 71/13/13 
s 4
f 76/14/15 86/7/6 85/8/7 77/15/17 
f 78/16/17 82/5/8 81/6/5 75/13/15 
s 16
f 73/18/14 83/6/9 86/7/6 76/19/15 
f 75/20/15 81/8/5 80/5/10 74/17/14 
s 64
f 71/18/13 79/6/11 82/7/8 78/19/17 
f 77/20/17 85/8/7 84/5/12 72/17/13 
s 2
f 56/14/13 68/7/12 67/8/9 57/15/14 
f 58/16/14 64/5/10 63/6/11 55/13/13 
s 4
f 60/14/15 70/7/6 69/8/7 61/15/16 
f 62/16/16 66/5/8 65/6/5 59/13/15 
s 16
f 57/18/14 67/6/9 70/7/6 60/19/15 
f 59/20/15 65/8/5 64/5/10 58/17/14 
s 64
f 55/18/13 63/6/11 66/7/8 62/19/16 
f 61/20/16 69/8/7 68/5/12 56/17/13 
s 2
f 17/21/1 14/7/10 13/8/9 199/22/2 
f 2/2/1 17/21/1 199/22/2 3/3/2 
f 4/4/2 10/5/6 9/6/5 1/1/1 
s 4
f 200/21/3 16/7/12 15/8/11 18/22/4 
f 6/2/3 200/21/3 18/22/4 7/3/4 
f 8/4/4 12/5/8 11/6/7 5/1/3 
s 16
f 199/23/2 13/6/9 16/7/12 200/24/3 
f 3/10/2 199/23/2 200/24/3 6/11/3 
f 5/12/3 11/8/7 10/5/6 4/9/2 
s 64
f 1/23/1 9/6/5 12/7/8 8/24/4 
f 2/10/1 1/23/1 8/24/4 7/11/4 
f 18/12/4 15/8/11 14/5/10 17/9/1 
s 2
f 35/21/1 32/7/10 31/8/9 201/22/2 
f 20/2/1 35/21/1 201/22/2 21/3/2 
f 22/4/2 28/5/6 27/6/5 19/1/1 
s 4
f 202/21/3 34/7/12 33/8/11 36/22/4 
f 24/2/3 202/21/3 36/22/4 25/3/4 
f 26/4/4 30/5/8 29/6/7 23/1/3 
s 16
f 201/23/2 31/6/9 34/7/12 202/24/3 
f 21/10/2 201/23/2 202/24/3 24/11/3 
f 23/12/3 29/8/7 28/5/6 22/9/2 
s 64
f 19/23/1 27/6/5 30/7/8 26/24/4 
f 20/10/1 19/23/1 26/24/4 25/11/4 
f 36/12/4 33/8/11 32/5/10 35/9/1 
s 2
f 53/21/1 50/7/10 49/8/9 203/22/2 
f 38/2/1 53/21/1 203/22/2 39/3/2 
f 40/4/2 46/5/6 45/6/5 37/1/1 
s 4
f 204/21/3 52/7/12 51/8/11 54/22/4 
f 42/2/3 204/21/3 54/22/4 43/3/4 
f 44/4/4 48/5/8 47/6/7 41/1/3 
s 16
f 203/23/2 49/6/9 52/7/12 204/24/3 
f 39/10/2 203/23/2 204/24/3 42/11/3 
f 41/12/3 47/8/7 46/5/6 40/9/2 
s 64
f 37/23/1 45/6/5 48/7/8 44/24/4 
f 38/10/1 37/23/1 44/24/4 43/11/4 
f 54/12/4 51/8/11 50/5/10 53/9/1 
# 182 polygons

