# 3ds Max Wavefront OBJ Exporter v0.99 - (c)2007 guruware
# File Created: 30.11.2023 19:28:09

mtllib Lampara.mtl

#
# object Lampara
#

v  5.8464 0.6550 1.6613
v  2.9232 0.6550 -3.4018
v  2.9438 0.9671 -3.4375
v  5.8876 0.9671 1.6613
v  -2.9232 0.6550 -3.4018
v  -2.9438 0.9671 -3.4375
v  -5.8464 0.6550 1.6613
v  -5.8876 0.9671 1.6613
v  -2.9232 0.6550 6.7244
v  -2.9438 0.9671 6.7601
v  2.9232 0.6550 6.7244
v  2.9438 0.9671 6.7601
v  1.4337 21.4852 -0.8219
v  -1.4337 21.4852 -0.8219
v  -0.0000 21.4852 1.6613
v  2.8674 21.4852 1.6613
v  7.5348 16.9315 1.6613
v  3.7674 16.9315 -4.8641
v  2.6606 20.5708 -2.9469
v  5.3211 20.5708 1.6613
v  0.9930 18.1711 -8.6877
v  -0.9930 18.1711 -8.6877
v  -0.8123 19.3312 -8.6583
v  0.8123 19.3312 -8.6583
v  -3.7674 16.9315 -4.8641
v  -7.5348 16.9315 1.6613
v  -5.3211 20.5708 1.6613
v  -2.6606 20.5708 -2.9469
v  -3.7674 16.9315 8.1867
v  -2.6606 20.5708 6.2695
v  3.7674 16.9315 8.1867
v  2.6606 20.5708 6.2695
v  -4.0567 16.2348 -5.3651
v  -3.9229 16.5534 -5.0690
v  3.9229 16.5534 -5.0690
v  4.0567 16.2348 -5.3651
v  4.0567 16.2348 8.6877
v  3.9229 16.5534 8.3916
v  -3.9229 16.5534 8.3916
v  -4.0567 16.2348 8.6877
v  7.4928 16.3168 1.6613
v  3.7464 16.3168 -4.8277
v  8.1134 16.2348 1.6613
v  -3.7464 16.3168 -4.8277
v  -7.4928 16.3168 1.6613
v  -8.1134 16.2348 1.6613
v  -3.7464 16.3168 8.1502
v  3.7464 16.3168 8.1502
v  2.7162 -0.0596 -3.0434
v  5.4325 -0.0596 1.6613
v  5.1023 -0.6026 1.6613
v  2.5511 -0.6026 -2.7574
v  2.7162 -0.0596 6.3659
v  2.5511 -0.6026 6.0800
v  -2.7162 -0.0596 6.3659
v  -2.5511 -0.6026 6.0800
v  -5.4325 -0.0596 1.6613
v  -5.1023 -0.6026 1.6613
v  -2.7162 -0.0596 -3.0434
v  -2.5511 -0.6026 -2.7574
v  2.7368 1.0217 -3.0791
v  5.4737 1.0217 1.6613
v  -2.7368 1.0217 -3.0791
v  -5.4737 1.0217 1.6613
v  -2.7368 1.0217 6.4016
v  2.7368 1.0217 6.4016
v  1.4337 20.5708 -0.8219
v  2.8674 20.5708 1.6613
v  -1.4337 20.5708 -0.8219
v  -2.8674 20.5708 1.6613
v  -1.4337 20.5708 4.1445
v  1.4337 20.5708 4.1445
v  -2.8674 21.4852 1.6613
v  -1.4337 21.4852 4.1445
v  1.4337 21.4852 4.1445
v  1.7819 -1.0529 4.7458
v  -1.7802 -1.0529 4.7458
v  0.0067 -1.0529 1.6590
v  -3.5612 -1.0529 1.6610
v  -1.7802 -1.0529 -1.4238
v  1.7819 -1.0529 -1.4238
v  3.5629 -1.0529 1.6610
v  3.5629 -0.6026 1.6610
v  1.7819 -0.6026 -1.4238
v  1.7819 -0.6026 4.7458
v  -1.7802 -0.6026 4.7458
v  -3.5612 -0.6026 1.6610
v  -1.7802 -0.6026 -1.4238
v  -1.9395 18.1711 -4.2111
v  1.9395 18.1711 -4.2111
v  -1.5867 19.3312 -3.5999
v  1.5867 19.3312 -3.5999
v  -0.9930 18.1711 -8.1513
v  0.9930 18.1711 -8.1513
v  0.8123 19.3312 -8.1219
v  -0.8123 19.3312 -8.1219
v  4.9887 15.8369 -8.1513
v  -4.9887 15.8369 -8.1513
v  -4.9887 15.8369 -8.6877
v  4.9887 15.8369 -8.6877
v  -4.0811 21.6654 -8.1219
v  -4.0811 21.6654 -8.6583
v  4.0811 21.6654 -8.1219
v  4.0811 21.6654 -8.6583
v  7.8458 16.5534 1.6613
v  -7.8458 16.5534 1.6613
# 106 vertices

vn 0.9525 -0.3047 -0.0000
vn 0.4762 -0.3047 -0.8249
vn 0.4275 0.5187 -0.7404
vn 0.8549 0.5187 -0.0000
vn -0.4762 -0.3047 -0.8249
vn -0.4275 0.5187 -0.7404
vn -0.9525 -0.3047 0.0000
vn -0.8549 0.5187 -0.0000
vn -0.4762 -0.3047 0.8249
vn -0.4275 0.5187 0.7404
vn 0.4762 -0.3047 0.8249
vn 0.4275 0.5187 0.7404
vn 0.3962 0.6100 -0.6862
vn -0.3962 0.6100 -0.6862
vn 0.0000 1.0000 -0.0000
vn 0.7924 0.6100 0.0000
vn 0.8075 0.5899 -0.0000
vn 0.4072 0.5422 -0.7350
vn 0.2971 0.8043 -0.5146
vn 0.5942 0.8043 -0.0000
vn 0.0058 0.0157 -0.9999
vn -0.0058 0.0157 -0.9999
vn 0.0053 0.0143 -0.9999
vn -0.0053 0.0143 -0.9999
vn -0.4072 0.5422 -0.7350
vn -0.8075 0.5899 0.0000
vn -0.5942 0.8043 0.0000
vn -0.2971 0.8043 -0.5146
vn -0.4072 0.5422 0.7350
vn -0.2971 0.8043 0.5146
vn 0.4072 0.5422 0.7350
vn 0.2971 0.8043 0.5146
vn -0.4513 -0.3516 -0.8202
vn -0.3938 0.6547 -0.6451
vn 0.3938 0.6547 -0.6451
vn 0.4513 -0.3516 -0.8202
vn 0.4513 -0.3516 0.8202
vn 0.3938 0.6547 0.6451
vn -0.3938 0.6547 0.6451
vn -0.4513 -0.3516 0.8202
vn 0.4158 -0.9095 -0.0000
vn 0.2079 -0.9095 -0.3601
vn 0.9217 -0.3879 0.0000
vn -0.2079 -0.9095 -0.3601
vn -0.4158 -0.9095 0.0000
vn -0.9217 -0.3879 0.0000
vn -0.2079 -0.9095 0.3601
vn 0.2079 -0.9095 0.3601
vn 0.4304 -0.5089 -0.7455
vn 0.8608 -0.5089 0.0000
vn 0.5942 -0.8043 -0.0000
vn 0.2971 -0.8043 -0.5146
vn 0.4304 -0.5089 0.7455
vn 0.2971 -0.8043 0.5146
vn -0.4304 -0.5089 0.7455
vn -0.2971 -0.8043 0.5146
vn -0.8608 -0.5089 0.0000
vn -0.5942 -0.8043 0.0000
vn -0.4304 -0.5089 -0.7455
vn -0.2971 -0.8043 -0.5146
vn 0.3333 0.7455 -0.5772
vn 0.6665 0.7455 -0.0000
vn -0.3333 0.7455 -0.5772
vn -0.6665 0.7455 0.0000
vn -0.3333 0.7455 0.5772
vn 0.3333 0.7455 0.5772
vn 0.2724 0.8386 -0.4717
vn 0.5447 0.8386 0.0000
vn -0.2724 0.8386 -0.4717
vn -0.5447 0.8386 0.0000
vn -0.2724 0.8386 0.4717
vn 0.2724 0.8386 0.4717
vn -0.7924 0.6100 0.0000
vn -0.3962 0.6100 0.6862
vn 0.3962 0.6100 0.6862
vn 0.3962 -0.6100 0.6862
vn -0.3962 -0.6100 0.6862
vn 0.0000 -1.0000 -0.0000
vn -0.7924 -0.6100 0.0000
vn -0.3962 -0.6100 -0.6862
vn 0.3962 -0.6100 -0.6862
vn 0.7924 -0.6100 0.0000
vn 0.5447 -0.8386 0.0000
vn 0.2724 -0.8386 -0.4717
vn 0.2724 -0.8386 0.4717
vn -0.2724 -0.8386 0.4717
vn -0.5447 -0.8386 0.0000
vn -0.2724 -0.8386 -0.4717
vn -0.3239 0.3210 -0.8900
vn 0.3239 0.3210 -0.8900
vn -0.1847 0.6753 -0.7141
vn 0.1847 0.6753 -0.7141
vn -0.2961 -0.3241 0.8985
vn 0.2961 -0.3241 0.8985
vn 0.3145 0.3905 0.8652
vn -0.3145 0.3905 0.8652
vn 0.6242 -0.5355 0.5689
vn -0.6242 -0.5355 0.5689
vn -0.6243 -0.5337 -0.5705
vn 0.6243 -0.5337 -0.5705
vn -0.5274 0.6145 0.5868
vn -0.5268 0.6166 -0.5851
vn 0.5274 0.6145 0.5868
vn 0.5268 0.6166 -0.5851
vn 0.7683 0.6401 -0.0000
vn -0.7683 0.6401 0.0000
# 106 vertex normals

vt 0.7500 0.0000 1.0000
vt 0.9167 0.0000 1.0000
vt 0.9167 0.0196 1.0000
vt 0.7500 0.0196 1.0000
vt -0.0833 0.0000 1.0000
vt 0.0833 0.0000 1.0000
vt 0.0833 0.0196 1.0000
vt -0.0833 0.0196 1.0000
vt 0.2500 0.0000 1.0000
vt 0.2500 0.0196 1.0000
vt 0.4167 0.0000 1.0000
vt 0.4167 0.0196 1.0000
vt 0.5833 0.0000 1.0000
vt 0.5833 0.0196 1.0000
vt 0.9167 1.0000 1.0000
vt 0.6667 1.0000 -0.0000
vt 0.5000 1.0000 -0.0000
vt 0.7500 1.0000 1.0000
vt 0.2500 1.0000 -1.0000
vt 0.0833 1.0000 -1.0000
vt 0.5833 1.0000 1.0000
vt 0.0833 0.9800 1.0000
vt 0.0833 1.0000 1.0000
vt -0.0833 1.0000 1.0000
vt -0.0833 0.9800 1.0000
vt 0.5833 0.9800 1.0000
vt 0.4167 1.0000 1.0000
vt 0.4167 0.9800 1.0000
vt 0.7500 0.9800 1.0000
vt 0.9167 0.9800 1.0000
vt 0.2500 0.9800 1.0000
vt 0.3333 0.0000 -0.0000
vt 0.0833 0.0000 -1.0000
vt 0.2500 0.0000 -1.0000
vt 0.6667 0.0000 0.0000
vt 0.5006 0.0000 0.0020
vt 0.2500 1.0000 1.0000
# 37 texture coords

o Lampara
g Lampara
usemtl wire_088088225
s off
f 1/1/1 2/2/2 3/3/3 4/4/4 
f 2/5/2 5/6/5 6/7/6 3/8/3 
f 5/6/5 7/9/7 8/10/8 6/7/6 
f 7/9/7 9/11/9 10/12/10 8/10/8 
f 9/11/9 11/13/11 12/14/12 10/12/10 
f 11/13/11 1/1/1 4/4/4 12/14/12 
s 1
f 13/15/13 14/16/14 15/17/15 16/18/16 
s off
f 17/18/17 18/15/18 19/15/19 20/18/20 
f 21/15/21 22/16/22 23/16/23 24/15/24 
f 25/16/25 26/19/26 27/19/27 28/16/28 
f 26/19/26 29/20/29 30/20/30 27/19/27 
f 29/20/29 31/21/31 32/21/32 30/20/30 
f 31/21/31 17/18/17 20/18/20 32/21/32 
f 33/22/33 34/23/34 35/24/35 36/25/36 
f 37/26/37 38/21/38 39/27/39 40/28/40 
f 31/21/31 29/27/29 39/27/39 38/21/38 
f 25/23/25 18/24/18 35/24/35 34/23/34 
f 41/29/41 42/30/42 36/30/36 43/29/43 
f 42/25/42 44/22/44 33/22/33 36/25/36 
f 44/22/44 45/31/45 46/31/46 33/22/33 
f 45/31/45 47/28/47 40/28/40 46/31/46 
f 47/28/47 48/26/48 37/26/37 40/28/40 
f 48/26/48 41/29/41 43/29/43 37/26/37 
f 49/2/49 50/1/50 51/1/51 52/2/52 
f 50/1/50 53/32/53 54/32/54 51/1/51 
f 53/32/53 55/33/55 56/33/56 54/32/54 
f 55/33/55 57/34/57 58/34/58 56/33/56 
f 57/34/57 59/35/59 60/35/60 58/34/58 
f 59/35/59 49/2/49 52/2/52 60/35/60 
f 61/3/61 42/30/42 41/29/41 62/4/62 
f 63/7/63 44/22/44 42/25/42 61/8/61 
f 64/10/64 45/31/45 44/22/44 63/7/63 
f 65/12/65 47/28/47 45/31/45 64/10/64 
f 66/14/66 48/26/48 47/28/47 65/12/65 
f 62/4/62 41/29/41 48/26/48 66/14/66 
f 50/1/50 49/2/49 2/2/2 1/1/1 
f 49/5/49 59/6/59 5/6/5 2/5/2 
f 59/6/59 57/9/57 7/9/7 5/6/5 
f 57/9/57 55/11/55 9/11/9 7/9/7 
f 55/11/55 53/13/53 11/13/11 9/11/9 
f 53/13/53 50/1/50 1/1/1 11/13/11 
f 61/3/61 62/4/62 4/4/4 3/3/3 
f 62/4/62 66/14/66 12/14/12 4/4/4 
f 66/14/66 65/12/65 10/12/10 12/14/12 
f 65/12/65 64/10/64 8/10/8 10/12/10 
f 64/10/64 63/7/63 6/7/6 8/10/8 
f 63/7/63 61/8/61 3/8/3 6/7/6 
f 20/18/20 19/15/19 67/15/67 68/18/68 
f 19/15/19 28/16/28 69/16/69 67/15/67 
f 28/16/28 27/19/27 70/19/70 69/16/69 
f 27/19/27 30/20/30 71/20/71 70/19/70 
f 30/20/30 32/21/32 72/21/72 71/20/71 
f 32/21/32 20/18/20 68/18/68 72/21/72 
s 1
f 14/16/14 73/19/73 74/20/74 15/17/15 
f 15/17/15 74/20/74 75/21/75 16/18/16 
s off
f 68/18/68 67/15/67 13/15/13 16/18/16 
f 67/15/67 69/16/69 14/16/14 13/15/13 
f 69/16/69 70/19/70 73/19/73 14/16/14 
f 70/19/70 71/20/71 74/20/74 73/19/73 
f 71/20/71 72/21/72 75/21/75 74/20/74 
f 72/21/72 68/18/68 16/18/16 75/21/75 
s 1
f 76/32/76 77/33/77 78/36/78 
f 77/33/77 79/34/79 78/36/78 
f 79/34/79 80/35/80 78/36/78 
f 80/35/80 81/2/81 78/36/78 
f 81/2/81 82/1/82 78/36/78 
f 82/1/82 76/32/76 78/36/78 
s off
f 52/2/52 51/1/51 83/1/83 84/2/84 
f 51/1/51 54/32/54 85/32/85 83/1/83 
f 54/32/54 56/33/56 86/33/86 85/32/85 
f 56/33/56 58/34/58 87/34/87 86/33/86 
f 58/34/58 60/35/60 88/35/88 87/34/87 
f 60/35/60 52/2/52 84/2/84 88/35/88 
f 84/2/84 83/1/83 82/1/82 81/2/81 
f 83/1/83 85/32/85 76/32/76 82/1/82 
f 85/32/85 86/33/86 77/33/77 76/32/76 
f 86/33/86 87/34/87 79/34/79 77/33/77 
f 87/34/87 88/35/88 80/35/80 79/34/79 
f 88/35/88 84/2/84 81/2/81 80/35/80 
f 18/15/18 25/16/25 89/16/89 90/15/90 
f 25/16/25 28/16/28 91/16/91 89/16/89 
f 28/16/28 19/15/19 92/15/92 91/16/91 
f 19/15/19 18/15/18 90/15/90 92/15/92 
f 90/15/90 89/16/89 93/16/93 94/15/94 
f 91/16/91 92/15/92 95/15/95 96/16/96 
f 97/15/97 98/16/98 99/16/99 100/15/100 
f 98/16/98 101/16/101 102/16/102 99/16/99 
f 101/16/101 103/15/103 104/15/104 102/16/102 
f 103/15/103 97/15/97 100/15/100 104/15/104 
f 35/15/35 105/18/105 43/29/43 36/30/36 
f 106/37/106 34/23/34 33/22/33 46/31/46 
f 39/27/39 106/37/106 46/31/46 40/28/40 
f 105/18/105 38/21/38 37/26/37 43/29/43 
f 18/15/18 17/18/17 105/18/105 35/15/35 
f 17/18/17 31/21/31 38/21/38 105/18/105 
f 29/27/29 26/37/26 106/37/106 39/27/39 
f 26/37/26 25/23/25 34/23/34 106/37/106 
f 89/16/89 91/16/91 96/16/96 93/16/93 
f 92/15/92 90/15/90 94/15/94 95/15/95 
f 94/15/94 93/16/93 98/16/98 97/15/97 
f 93/16/93 96/16/96 101/16/101 98/16/98 
f 96/16/96 95/15/95 103/15/103 101/16/101 
f 95/15/95 94/15/94 97/15/97 103/15/103 
f 22/16/22 21/15/21 100/15/100 99/16/99 
f 21/15/21 24/15/24 104/15/104 100/15/100 
f 24/15/24 23/16/23 102/16/102 104/15/104 
f 23/16/23 22/16/22 99/16/99 102/16/102 
# 101 polygons - 6 triangles

