# 3ds Max Wavefront OBJ Exporter v0.99 - (c)2007 guruware
# File Created: 30.11.2023 19:28:21

mtllib Pallet.mtl

#
# object Pallet
#

v  -18.3768 11.7298 -0.0000
v  -18.3768 11.7298 16.5299
v  -25.3455 11.7298 16.5299
v  -25.3455 11.7298 -0.0000
v  -32.3142 17.5500 -0.0000
v  -32.3142 17.5500 16.5299
v  -25.3455 17.5500 16.5299
v  -25.3455 17.5500 -0.0000
v  -18.3768 11.7298 33.0597
v  -18.3768 17.5500 33.0597
v  -25.3455 17.5500 33.0597
v  -25.3455 11.7298 33.0597
v  -18.3768 17.5500 -0.0000
v  -18.3768 17.5500 16.5299
v  -32.3142 11.7298 -33.0597
v  -32.3142 17.5500 -33.0597
v  -25.3455 17.5500 -33.0597
v  -25.3455 11.7298 -33.0597
v  -32.3142 11.7298 -16.5299
v  -32.3142 11.7298 -0.0000
v  -32.3142 17.5500 -16.5299
v  -18.3768 11.7298 -33.0597
v  -18.3768 11.7298 -16.5299
v  -25.3455 11.7298 -16.5299
v  -32.3142 11.7298 33.0597
v  -32.3142 11.7298 16.5299
v  -25.3455 17.5500 -16.5299
v  -18.3768 17.5500 -33.0597
v  -18.3768 17.5500 -16.5299
v  -32.3142 17.5500 33.0597
v  -1.4798 11.7298 -0.0000
v  -1.4798 11.7298 16.5299
v  -8.4485 11.7298 16.5299
v  -8.4485 11.7298 -0.0000
v  -15.4172 17.5500 -0.0000
v  -15.4172 17.5500 16.5299
v  -8.4485 17.5500 16.5299
v  -8.4485 17.5500 -0.0000
v  -1.4798 11.7298 33.0597
v  -1.4798 17.5500 33.0597
v  -8.4485 17.5500 33.0597
v  -8.4485 11.7298 33.0597
v  -1.4798 17.5500 -0.0000
v  -1.4798 17.5500 16.5299
v  -15.4172 11.7298 -33.0597
v  -15.4172 17.5500 -33.0597
v  -8.4485 17.5500 -33.0597
v  -8.4485 11.7298 -33.0597
v  -15.4172 11.7298 -16.5299
v  -15.4172 11.7298 -0.0000
v  -15.4172 17.5500 -16.5299
v  -1.4798 11.7298 -33.0597
v  -1.4798 11.7298 -16.5299
v  -8.4485 11.7298 -16.5299
v  -15.4172 11.7298 33.0597
v  -15.4172 11.7298 16.5299
v  -8.4485 17.5500 -16.5299
v  -1.4798 17.5500 -33.0597
v  -1.4798 17.5500 -16.5299
v  -15.4172 17.5500 33.0597
v  15.4172 11.7298 -0.0000
v  15.4172 11.7298 16.5299
v  8.4485 11.7298 16.5299
v  8.4485 11.7298 -0.0000
v  1.4798 17.5500 -0.0000
v  1.4798 17.5500 16.5299
v  8.4485 17.5500 16.5299
v  8.4485 17.5500 -0.0000
v  15.4172 11.7298 33.0597
v  15.4172 17.5500 33.0597
v  8.4485 17.5500 33.0597
v  8.4485 11.7298 33.0597
v  15.4172 17.5500 -0.0000
v  15.4172 17.5500 16.5299
v  1.4798 11.7298 -33.0597
v  1.4798 17.5500 -33.0597
v  8.4485 17.5500 -33.0597
v  8.4485 11.7298 -33.0597
v  1.4798 11.7298 -16.5299
v  1.4798 11.7298 -0.0000
v  1.4798 17.5500 -16.5299
v  15.4172 11.7298 -33.0597
v  15.4172 11.7298 -16.5299
v  8.4485 11.7298 -16.5299
v  1.4798 11.7298 33.0597
v  1.4798 11.7298 16.5299
v  8.4485 17.5500 -16.5299
v  15.4172 17.5500 -33.0597
v  15.4172 17.5500 -16.5299
v  1.4798 17.5500 33.0597
v  32.3142 11.7298 -0.0000
v  32.3142 11.7298 16.5299
v  25.3455 11.7298 16.5299
v  25.3455 11.7298 -0.0000
v  18.3768 17.5500 -0.0000
v  18.3768 17.5500 16.5299
v  25.3455 17.5500 16.5299
v  25.3455 17.5500 -0.0000
v  32.3142 11.7298 33.0597
v  32.3142 17.5500 33.0597
v  25.3455 17.5500 33.0597
v  25.3455 11.7298 33.0597
v  32.3142 17.5500 -0.0000
v  32.3142 17.5500 16.5299
v  18.3768 11.7298 -33.0597
v  18.3768 17.5500 -33.0597
v  25.3455 17.5500 -33.0597
v  25.3455 11.7298 -33.0597
v  18.3768 11.7298 -16.5299
v  18.3768 11.7298 -0.0000
v  18.3768 17.5500 -16.5299
v  32.3142 11.7298 -33.0597
v  32.3142 11.7298 -16.5299
v  25.3455 11.7298 -16.5299
v  18.3768 11.7298 33.0597
v  18.3768 11.7298 16.5299
v  25.3455 17.5500 -16.5299
v  32.3142 17.5500 -33.0597
v  32.3142 17.5500 -16.5299
v  18.3768 17.5500 33.0597
v  -18.3768 0.0167 -0.0000
v  -18.3768 0.0167 16.5299
v  -25.3455 0.0167 16.5299
v  -25.3455 0.0167 -0.0000
v  -32.3142 5.8369 -0.0000
v  -32.3142 5.8369 16.5299
v  -25.3455 5.8369 16.5299
v  -25.3455 5.8369 -0.0000
v  -18.3768 0.0167 33.0597
v  -18.3768 5.8369 33.0597
v  -25.3455 5.8369 33.0597
v  -25.3455 0.0167 33.0597
v  -18.3768 5.8369 -0.0000
v  -18.3768 5.8369 16.5299
v  -32.3142 0.0167 -33.0597
v  -32.3142 5.8369 -33.0597
v  -25.3455 5.8369 -33.0597
v  -25.3455 0.0167 -33.0597
v  -32.3142 0.0167 -16.5299
v  -32.3142 0.0167 -0.0000
v  -32.3142 5.8369 -16.5299
v  -18.3768 0.0167 -33.0597
v  -18.3768 0.0167 -16.5299
v  -25.3455 0.0167 -16.5299
v  -32.3142 0.0167 33.0597
v  -32.3142 0.0167 16.5299
v  -25.3455 5.8369 -16.5299
v  -18.3768 5.8369 -33.0597
v  -18.3768 5.8369 -16.5299
v  -32.3142 5.8369 33.0597
v  -1.4798 0.0167 -0.0000
v  -1.4798 0.0167 16.5299
v  -8.4485 0.0167 16.5299
v  -8.4485 0.0167 -0.0000
v  -15.4172 5.8369 -0.0000
v  -15.4172 5.8369 16.5299
v  -8.4485 5.8369 16.5299
v  -8.4485 5.8369 -0.0000
v  -1.4798 0.0167 33.0597
v  -1.4798 5.8369 33.0597
v  -8.4485 5.8369 33.0597
v  -8.4485 0.0167 33.0597
v  -1.4798 5.8369 -0.0000
v  -1.4798 5.8369 16.5299
v  -15.4172 0.0167 -33.0597
v  -15.4172 5.8369 -33.0597
v  -8.4485 5.8369 -33.0597
v  -8.4485 0.0167 -33.0597
v  -15.4172 0.0167 -16.5299
v  -15.4172 0.0167 -0.0000
v  -15.4172 5.8369 -16.5299
v  -1.4798 0.0167 -33.0597
v  -1.4798 0.0167 -16.5299
v  -8.4485 0.0167 -16.5299
v  -15.4172 0.0167 33.0597
v  -15.4172 0.0167 16.5299
v  -8.4485 5.8369 -16.5299
v  -1.4798 5.8369 -33.0597
v  -1.4798 5.8369 -16.5299
v  -15.4172 5.8369 33.0597
v  15.4172 0.0167 -0.0000
v  15.4172 0.0167 16.5299
v  8.4485 0.0167 16.5299
v  8.4485 0.0167 -0.0000
v  1.4798 5.8369 -0.0000
v  1.4798 5.8369 16.5299
v  8.4485 5.8369 16.5299
v  8.4485 5.8369 -0.0000
v  15.4172 0.0167 33.0597
v  15.4172 5.8369 33.0597
v  8.4485 5.8369 33.0597
v  8.4485 0.0167 33.0597
v  15.4172 5.8369 -0.0000
v  15.4172 5.8369 16.5299
v  1.4798 0.0167 -33.0597
v  1.4798 5.8369 -33.0597
v  8.4485 5.8369 -33.0597
v  8.4485 0.0167 -33.0597
v  1.4798 0.0167 -16.5299
v  1.4798 0.0167 -0.0000
v  1.4798 5.8369 -16.5299
v  15.4172 0.0167 -33.0597
v  15.4172 0.0167 -16.5299
v  8.4485 0.0167 -16.5299
v  1.4798 0.0167 33.0597
v  1.4798 0.0167 16.5299
v  8.4485 5.8369 -16.5299
v  15.4172 5.8369 -33.0597
v  15.4172 5.8369 -16.5299
v  1.4798 5.8369 33.0597
v  32.3142 0.0167 -0.0000
v  32.3142 0.0167 16.5299
v  25.3455 0.0167 16.5299
v  25.3455 0.0167 -0.0000
v  18.3768 5.8369 -0.0000
v  18.3768 5.8369 16.5299
v  25.3455 5.8369 16.5299
v  25.3455 5.8369 -0.0000
v  32.3142 0.0167 33.0597
v  32.3142 5.8369 33.0597
v  25.3455 5.8369 33.0597
v  25.3455 0.0167 33.0597
v  32.3142 5.8369 -0.0000
v  32.3142 5.8369 16.5299
v  18.3768 0.0167 -33.0597
v  18.3768 5.8369 -33.0597
v  25.3455 5.8369 -33.0597
v  25.3455 0.0167 -33.0597
v  18.3768 0.0167 -16.5299
v  18.3768 0.0167 -0.0000
v  18.3768 5.8369 -16.5299
v  32.3142 0.0167 -33.0597
v  32.3142 0.0167 -16.5299
v  25.3455 0.0167 -16.5299
v  18.3768 0.0167 33.0597
v  18.3768 0.0167 16.5299
v  32.3142 5.8369 -16.5299
v  32.3142 5.8369 -33.0597
v  18.3768 5.8369 33.0597
v  -0.0132 5.9306 29.8364
v  -14.9156 5.9306 29.8364
v  -14.9156 5.9306 22.8677
v  -0.0132 5.9306 22.8677
v  -0.0132 11.7508 15.8990
v  -14.9156 11.7508 15.8990
v  -14.9156 11.7508 22.8677
v  -0.0132 11.7508 22.8677
v  -29.8181 5.9306 29.8364
v  -29.8181 11.7508 29.8364
v  -29.8181 11.7508 22.8677
v  -29.8181 5.9306 22.8677
v  -0.0132 11.7508 29.8364
v  -14.9156 11.7508 29.8364
v  29.7918 5.9306 15.8990
v  29.7918 11.7508 15.8990
v  29.7918 11.7508 22.8677
v  29.7918 5.9306 22.8677
v  14.8893 5.9306 15.8990
v  -0.0132 5.9306 15.8990
v  14.8893 11.7508 15.8990
v  29.7918 5.9306 29.8364
v  14.8893 5.9306 29.8364
v  14.8893 5.9306 22.8677
v  -29.8181 5.9306 15.8990
v  -14.9156 5.9306 15.8990
v  14.8893 11.7508 22.8677
v  29.7918 11.7508 29.8364
v  14.8893 11.7508 29.8364
v  -29.8181 11.7508 15.8990
v  -0.0132 5.9306 -15.3618
v  -14.9156 5.9306 -15.3618
v  -14.9156 5.9306 -22.3305
v  -0.0132 5.9306 -22.3305
v  -0.0132 11.7508 -29.2992
v  -14.9156 11.7508 -29.2992
v  -14.9156 11.7508 -22.3305
v  -0.0132 11.7508 -22.3305
v  -29.8181 5.9306 -15.3618
v  -29.8181 11.7508 -15.3618
v  -29.8181 11.7508 -22.3305
v  -29.8181 5.9306 -22.3305
v  -0.0132 11.7508 -15.3618
v  -14.9156 11.7508 -15.3618
v  29.7918 5.9306 -29.2992
v  29.7918 11.7508 -29.2992
v  29.7918 11.7508 -22.3305
v  29.7918 5.9306 -22.3305
v  14.8893 5.9306 -29.2992
v  -0.0132 5.9306 -29.2992
v  14.8893 11.7508 -29.2992
v  29.7918 5.9306 -15.3618
v  14.8893 5.9306 -15.3618
v  14.8893 5.9306 -22.3305
v  -29.8181 5.9306 -29.2992
v  -14.9156 5.9306 -29.2992
v  14.8893 11.7508 -22.3305
v  29.7918 11.7508 -15.3618
v  14.8893 11.7508 -15.3618
v  -29.8181 11.7508 -29.2992
# 299 vertices

vn 0.7071 -0.7071 -0.0000
vn 0.0000 -1.0000 -0.0000
vn -0.7071 0.7071 -0.0000
vn 0.0000 1.0000 -0.0000
vn 0.5774 -0.5774 0.5774
vn 0.5774 0.5774 0.5774
vn 0.0000 0.7071 0.7071
vn 0.0000 -0.7071 0.7071
vn 0.7071 0.7071 -0.0000
vn -0.5774 -0.5774 -0.5774
vn -0.5774 0.5774 -0.5774
vn 0.0000 0.7071 -0.7071
vn 0.0000 -0.7071 -0.7071
vn -0.7071 -0.7071 -0.0000
vn 0.5774 -0.5774 -0.5774
vn -0.5774 -0.5774 0.5774
vn 0.5774 0.5774 -0.5774
vn -0.5774 0.5774 0.5774
vn -0.0000 -0.7071 0.7071
vn -0.0000 0.7071 0.7071
# 20 vertex normals

vt 0.0000 0.5000 0.0000
vt 0.0000 0.2500 0.0000
vt 0.5000 0.2500 0.0000
vt 0.5000 0.5000 0.0000
vt 1.0000 0.0000 0.0000
vt 1.0000 1.0000 0.0000
vt 0.5000 1.0000 0.0000
vt 0.5000 0.0000 0.0000
vt 0.2500 0.0000 0.0000
vt 0.2500 1.0000 0.0000
vt 0.0000 1.0000 0.0000
vt 0.0000 0.7500 0.0000
vt 0.5000 0.7500 0.0000
vt 1.0000 0.2500 0.0000
vt 0.7500 0.0000 0.0000
vt 0.7500 1.0000 0.0000
vt 0.0000 0.0000 0.0000
vt 1.0000 0.7500 0.0000
vt 1.0000 0.5000 0.0000
# 19 texture coords

o Pallet
g Pallet
usemtl wire_006135113
s 2
f 1/1/1 2/2/1 3/3/2 4/4/2 
s 4
f 5/1/3 6/2/3 7/3/4 8/4/4 
s 8
f 9/5/5 10/6/6 11/7/7 12/8/8 
s 16
f 2/9/1 1/8/1 13/7/9 14/10/9 
s 32
f 15/5/10 16/6/11 17/7/12 18/8/13 
s 64
f 19/9/14 20/8/14 5/7/3 21/10/3 
s 2
f 22/11/15 23/12/1 24/13/2 18/7/13 
f 23/12/1 1/1/1 4/4/2 24/13/2 
f 25/5/16 26/14/14 3/3/2 12/8/8 
s 4
f 16/11/11 21/12/3 27/13/4 17/7/12 
f 21/12/3 5/1/3 8/4/4 27/13/4 
f 10/5/6 14/14/9 7/3/4 11/8/7 
s 16
f 23/15/1 22/5/15 28/6/17 29/16/9 
f 1/8/1 23/15/1 29/16/9 13/7/9 
f 14/10/9 10/11/6 9/17/5 2/9/1 
s 64
f 26/15/14 25/5/16 30/6/18 6/16/3 
f 20/8/14 26/15/14 6/16/3 5/7/3 
f 21/10/3 16/11/11 15/17/10 19/9/14 
s 2
f 31/1/1 32/2/1 33/3/2 34/4/2 
s 4
f 35/1/3 36/2/3 37/3/4 38/4/4 
s 8
f 39/5/5 40/6/6 41/7/7 42/8/8 
s 16
f 32/9/1 31/8/1 43/7/9 44/10/9 
s 32
f 45/5/10 46/6/11 47/7/12 48/8/13 
s 64
f 49/9/14 50/8/14 35/7/3 51/10/3 
s 2
f 52/11/15 53/12/1 54/13/2 48/7/13 
f 53/12/1 31/1/1 34/4/2 54/13/2 
f 55/5/16 56/14/14 33/3/2 42/8/8 
s 4
f 46/11/11 51/12/3 57/13/4 47/7/12 
f 51/12/3 35/1/3 38/4/4 57/13/4 
f 40/5/6 44/14/9 37/3/4 41/8/7 
s 16
f 53/15/1 52/5/15 58/6/17 59/16/9 
f 31/8/1 53/15/1 59/16/9 43/7/9 
f 44/10/9 40/11/6 39/17/5 32/9/1 
s 64
f 56/15/14 55/5/16 60/6/18 36/16/3 
f 50/8/14 56/15/14 36/16/3 35/7/3 
f 51/10/3 46/11/11 45/17/10 49/9/14 
s 2
f 61/1/1 62/2/1 63/3/2 64/4/2 
s 4
f 65/1/3 66/2/3 67/3/4 68/4/4 
s 8
f 69/5/5 70/6/6 71/7/7 72/8/8 
s 16
f 62/9/1 61/8/1 73/7/9 74/10/9 
s 32
f 75/5/10 76/6/11 77/7/12 78/8/13 
s 64
f 79/9/14 80/8/14 65/7/3 81/10/3 
s 2
f 82/11/15 83/12/1 84/13/2 78/7/13 
f 83/12/1 61/1/1 64/4/2 84/13/2 
f 85/5/16 86/14/14 63/3/2 72/8/8 
s 4
f 76/11/11 81/12/3 87/13/4 77/7/12 
f 81/12/3 65/1/3 68/4/4 87/13/4 
f 70/5/6 74/14/9 67/3/4 71/8/7 
s 16
f 83/15/1 82/5/15 88/6/17 89/16/9 
f 61/8/1 83/15/1 89/16/9 73/7/9 
f 74/10/9 70/11/6 69/17/5 62/9/1 
s 64
f 86/15/14 85/5/16 90/6/18 66/16/3 
f 80/8/14 86/15/14 66/16/3 65/7/3 
f 81/10/3 76/11/11 75/17/10 79/9/14 
s 2
f 91/1/1 92/2/1 93/3/2 94/4/2 
s 4
f 95/1/3 96/2/3 97/3/4 98/4/4 
s 8
f 99/5/5 100/6/6 101/7/7 102/8/8 
s 16
f 92/9/1 91/8/1 103/7/9 104/10/9 
s 32
f 105/5/10 106/6/11 107/7/12 108/8/13 
s 64
f 109/9/14 110/8/14 95/7/3 111/10/3 
s 2
f 112/11/15 113/12/1 114/13/2 108/7/13 
f 113/12/1 91/1/1 94/4/2 114/13/2 
f 115/5/16 116/14/14 93/3/2 102/8/8 
s 4
f 106/11/11 111/12/3 117/13/4 107/7/12 
f 111/12/3 95/1/3 98/4/4 117/13/4 
f 100/5/6 104/14/9 97/3/4 101/8/7 
s 16
f 113/15/1 112/5/15 118/6/17 119/16/9 
f 91/8/1 113/15/1 119/16/9 103/7/9 
f 104/10/9 100/11/6 99/17/5 92/9/1 
s 64
f 116/15/14 115/5/16 120/6/18 96/16/3 
f 110/8/14 116/15/14 96/16/3 95/7/3 
f 111/10/3 106/11/11 105/17/10 109/9/14 
s 2
f 121/1/1 122/2/1 123/3/2 124/4/2 
s 4
f 125/1/3 126/2/3 127/3/4 128/4/4 
s 8
f 129/5/5 130/6/6 131/7/7 132/8/8 
s 16
f 122/9/1 121/8/1 133/7/9 134/10/9 
s 32
f 135/5/10 136/6/11 137/7/12 138/8/13 
s 64
f 139/9/14 140/8/14 125/7/3 141/10/3 
s 2
f 142/11/15 143/12/1 144/13/2 138/7/13 
f 143/12/1 121/1/1 124/4/2 144/13/2 
f 145/5/16 146/14/14 123/3/2 132/8/8 
s 4
f 136/11/11 141/12/3 147/13/4 137/7/12 
f 141/12/3 125/1/3 128/4/4 147/13/4 
f 130/5/6 134/14/9 127/3/4 131/8/7 
s 16
f 143/15/1 142/5/15 148/6/17 149/16/9 
f 121/8/1 143/15/1 149/16/9 133/7/9 
f 134/10/9 130/11/6 129/17/5 122/9/1 
s 64
f 146/15/14 145/5/16 150/6/18 126/16/3 
f 140/8/14 146/15/14 126/16/3 125/7/3 
f 141/10/3 136/11/11 135/17/10 139/9/14 
s 2
f 151/1/1 152/2/1 153/3/2 154/4/2 
s 4
f 155/1/3 156/2/3 157/3/4 158/4/4 
s 8
f 159/5/5 160/6/6 161/7/7 162/8/8 
s 16
f 152/9/1 151/8/1 163/7/9 164/10/9 
s 32
f 165/5/10 166/6/11 167/7/12 168/8/13 
s 64
f 169/9/14 170/8/14 155/7/3 171/10/3 
s 2
f 172/11/15 173/12/1 174/13/2 168/7/13 
f 173/12/1 151/1/1 154/4/2 174/13/2 
f 175/5/16 176/14/14 153/3/2 162/8/8 
s 4
f 166/11/11 171/12/3 177/13/4 167/7/12 
f 171/12/3 155/1/3 158/4/4 177/13/4 
f 160/5/6 164/14/9 157/3/4 161/8/7 
s 16
f 173/15/1 172/5/15 178/6/17 179/16/9 
f 151/8/1 173/15/1 179/16/9 163/7/9 
f 164/10/9 160/11/6 159/17/5 152/9/1 
s 64
f 176/15/14 175/5/16 180/6/18 156/16/3 
f 170/8/14 176/15/14 156/16/3 155/7/3 
f 171/10/3 166/11/11 165/17/10 169/9/14 
s 2
f 181/1/1 182/2/1 183/3/2 184/4/2 
s 4
f 185/1/3 186/2/3 187/3/4 188/4/4 
s 8
f 189/5/5 190/6/6 191/7/7 192/8/8 
s 16
f 182/9/1 181/8/1 193/7/9 194/10/9 
s 32
f 195/5/10 196/6/11 197/7/12 198/8/13 
s 64
f 199/9/14 200/8/14 185/7/3 201/10/3 
s 2
f 202/11/15 203/12/1 204/13/2 198/7/13 
f 203/12/1 181/1/1 184/4/2 204/13/2 
f 205/5/16 206/14/14 183/3/2 192/8/8 
s 4
f 196/11/11 201/12/3 207/13/4 197/7/12 
f 201/12/3 185/1/3 188/4/4 207/13/4 
f 190/5/6 194/14/9 187/3/4 191/8/7 
s 16
f 203/15/1 202/5/15 208/6/17 209/16/9 
f 181/8/1 203/15/1 209/16/9 193/7/9 
f 194/10/9 190/11/6 189/17/5 182/9/1 
s 64
f 206/15/14 205/5/16 210/6/18 186/16/3 
f 200/8/14 206/15/14 186/16/3 185/7/3 
f 201/10/3 196/11/11 195/17/10 199/9/14 
s 2
f 211/1/1 212/2/1 213/3/2 214/4/2 
s 4
f 215/1/3 216/2/3 217/3/4 218/4/4 
s 8
f 219/5/5 220/6/6 221/7/7 222/8/8 
s 16
f 212/9/1 211/8/1 223/7/9 224/10/9 
s 32
f 225/5/10 226/6/11 227/7/12 228/8/13 
s 64
f 229/9/14 230/8/14 215/7/3 231/10/3 
s 2
f 232/11/15 233/12/1 234/13/2 228/7/13 
f 233/12/1 211/1/1 214/4/2 234/13/2 
f 235/5/16 236/14/14 213/3/2 222/8/8 
s 4
f 237/18/9 238/6/17 227/7/12 218/4/4 223/19/9 
f 220/5/6 224/14/9 217/3/4 221/8/7 
s 16
f 233/15/1 232/5/15 238/6/17 237/16/9 
f 211/8/1 233/15/1 237/16/9 223/7/9 
f 224/10/9 220/11/6 219/17/5 212/9/1 
s 64
f 236/15/14 235/5/16 239/6/18 216/16/3 
f 230/8/14 236/15/14 216/16/3 215/7/3 
f 231/10/3 226/11/11 225/17/10 229/9/14 
s 2
f 93/3/2 116/14/14 110/19/14 94/4/2 
s 4
f 97/3/4 104/14/9 103/19/9 98/4/4 
s 8
f 101/7/7 120/11/18 115/17/16 102/8/8 
s 32
f 107/7/12 118/11/17 112/17/15 108/8/13 
s 2
f 114/13/2 109/18/14 105/6/10 108/7/13 
f 94/4/2 110/19/14 109/18/14 114/13/2 
f 93/3/2 92/2/1 99/17/5 102/8/8 
s 4
f 117/13/4 119/18/9 118/6/17 107/7/12 
f 98/4/4 103/19/9 119/18/9 117/13/4 
f 97/3/4 96/2/3 120/17/18 101/8/7 
s 2
f 63/3/2 86/14/14 80/19/14 64/4/2 
s 4
f 67/3/4 74/14/9 73/19/9 68/4/4 
s 8
f 71/7/7 90/11/18 85/17/16 72/8/8 
s 32
f 77/7/12 88/11/17 82/17/15 78/8/13 
s 2
f 84/13/2 79/18/14 75/6/10 78/7/13 
f 64/4/2 80/19/14 79/18/14 84/13/2 
f 63/3/2 62/2/1 69/17/5 72/8/8 
s 4
f 87/13/4 89/18/9 88/6/17 77/7/12 
f 68/4/4 73/19/9 89/18/9 87/13/4 
f 67/3/4 66/2/3 90/17/18 71/8/7 
s 2
f 33/3/2 56/14/14 50/19/14 34/4/2 
s 4
f 37/3/4 44/14/9 43/19/9 38/4/4 
s 8
f 41/7/7 60/11/18 55/17/16 42/8/8 
s 32
f 47/7/12 58/11/17 52/17/15 48/8/13 
s 2
f 54/13/2 49/18/14 45/6/10 48/7/13 
f 34/4/2 50/19/14 49/18/14 54/13/2 
f 33/3/2 32/2/1 39/17/5 42/8/8 
s 4
f 57/13/4 59/18/9 58/6/17 47/7/12 
f 38/4/4 43/19/9 59/18/9 57/13/4 
f 37/3/4 36/2/3 60/17/18 41/8/7 
s 2
f 3/3/2 26/14/14 20/19/14 4/4/2 
s 4
f 7/3/4 14/14/9 13/19/9 8/4/4 
s 8
f 11/7/7 30/11/18 25/17/16 12/8/8 
s 32
f 17/7/12 28/11/17 22/17/15 18/8/13 
s 2
f 24/13/2 19/18/14 15/6/10 18/7/13 
f 4/4/2 20/19/14 19/18/14 24/13/2 
f 3/3/2 2/2/1 9/17/5 12/8/8 
s 4
f 27/13/4 29/18/9 28/6/17 17/7/12 
f 8/4/4 13/19/9 29/18/9 27/13/4 
f 7/3/4 6/2/3 30/17/18 11/8/7 
s 2
f 123/3/2 146/14/14 140/19/14 124/4/2 
s 4
f 127/3/4 134/14/9 133/19/9 128/4/4 
s 8
f 131/7/7 150/11/18 145/17/16 132/8/8 
s 32
f 137/7/12 148/11/17 142/17/15 138/8/13 
s 2
f 144/13/2 139/18/14 135/6/10 138/7/13 
f 124/4/2 140/19/14 139/18/14 144/13/2 
f 123/3/2 122/2/1 129/17/5 132/8/8 
s 4
f 147/13/4 149/18/9 148/6/17 137/7/12 
f 128/4/4 133/19/9 149/18/9 147/13/4 
f 127/3/4 126/2/3 150/17/18 131/8/7 
s 2
f 153/3/2 176/14/14 170/19/14 154/4/2 
s 4
f 157/3/4 164/14/9 163/19/9 158/4/4 
s 8
f 161/7/7 180/11/18 175/17/16 162/8/8 
s 32
f 167/7/12 178/11/17 172/17/15 168/8/13 
s 2
f 174/13/2 169/18/14 165/6/10 168/7/13 
f 154/4/2 170/19/14 169/18/14 174/13/2 
f 153/3/2 152/2/1 159/17/5 162/8/8 
s 4
f 177/13/4 179/18/9 178/6/17 167/7/12 
f 158/4/4 163/19/9 179/18/9 177/13/4 
f 157/3/4 156/2/3 180/17/18 161/8/7 
s 2
f 183/3/2 206/14/14 200/19/14 184/4/2 
s 4
f 187/3/4 194/14/9 193/19/9 188/4/4 
s 8
f 191/7/7 210/11/18 205/17/16 192/8/8 
s 32
f 197/7/12 208/11/17 202/17/15 198/8/13 
s 2
f 204/13/2 199/18/14 195/6/10 198/7/13 
f 184/4/2 200/19/14 199/18/14 204/13/2 
f 183/3/2 182/2/1 189/17/5 192/8/8 
s 4
f 207/13/4 209/18/9 208/6/17 197/7/12 
f 188/4/4 193/19/9 209/18/9 207/13/4 
f 187/3/4 186/2/3 210/17/18 191/8/7 
s 2
f 213/3/2 236/14/14 230/19/14 214/4/2 
s 4
f 217/3/4 224/14/9 223/19/9 218/4/4 
s 8
f 221/7/7 239/11/18 235/17/16 222/8/8 
s 32
f 227/7/12 238/11/17 232/17/15 228/8/13 
s 2
f 234/13/2 229/18/14 225/6/10 228/7/13 
f 214/4/2 230/19/14 229/18/14 234/13/2 
f 213/3/2 212/2/1 219/17/5 222/8/8 
s 4
f 227/7/12 226/11/11 231/12/3 215/1/3 218/4/4 
f 217/3/4 216/2/3 239/17/18 221/8/7 
s 2
f 240/1/8 241/2/8 242/3/2 243/4/2 
s 4
f 244/1/12 245/2/12 246/3/4 247/4/4 
s 8
f 248/5/16 249/6/18 250/7/3 251/8/14 
s 16
f 241/9/8 240/8/8 252/7/7 253/10/7 
s 32
f 254/5/15 255/6/17 256/7/9 257/8/1 
s 64
f 258/9/13 259/8/13 244/7/12 260/10/12 
s 2
f 261/11/5 262/12/8 263/13/2 257/7/1 
f 262/12/8 240/1/8 243/4/2 263/13/2 
f 264/5/10 265/14/13 242/3/2 251/8/14 
s 4
f 255/11/17 260/12/12 266/13/4 256/7/9 
f 260/12/12 244/1/12 247/4/4 266/13/4 
f 249/5/18 253/14/7 246/3/4 250/8/3 
s 16
f 262/15/8 261/5/5 267/6/6 268/16/7 
f 240/8/8 262/15/8 268/16/7 252/7/7 
f 253/10/7 249/11/18 248/17/16 241/9/8 
s 64
f 265/15/13 264/5/10 269/6/11 245/16/12 
f 259/8/13 265/15/13 245/16/12 244/7/12 
f 260/10/12 255/11/17 254/17/15 258/9/13 
s 2
f 242/3/2 265/14/13 259/19/13 243/4/2 
s 4
f 246/3/4 253/14/7 252/19/7 247/4/4 
s 8
f 250/7/3 269/11/11 264/17/10 251/8/14 
s 32
f 256/7/9 267/11/6 261/17/5 257/8/1 
s 2
f 263/13/2 258/18/13 254/6/15 257/7/1 
f 243/4/2 259/19/13 258/18/13 263/13/2 
f 242/3/2 241/2/8 248/17/16 251/8/14 
s 4
f 266/13/4 268/18/7 267/6/6 256/7/9 
f 247/4/4 252/19/7 268/18/7 266/13/4 
f 246/3/4 245/2/12 269/17/11 250/8/3 
s 2
f 270/1/19 271/2/19 272/3/2 273/4/2 
s 4
f 274/1/12 275/2/12 276/3/4 277/4/4 
s 8
f 278/5/16 279/6/18 280/7/3 281/8/14 
s 16
f 271/9/19 270/8/19 282/7/20 283/10/20 
s 32
f 284/5/15 285/6/17 286/7/9 287/8/1 
s 64
f 288/9/13 289/8/13 274/7/12 290/10/12 
s 2
f 291/11/5 292/12/19 293/13/2 287/7/1 
f 292/12/19 270/1/19 273/4/2 293/13/2 
f 294/5/10 295/14/13 272/3/2 281/8/14 
s 4
f 285/11/17 290/12/12 296/13/4 286/7/9 
f 290/12/12 274/1/12 277/4/4 296/13/4 
f 279/5/18 283/14/20 276/3/4 280/8/3 
s 16
f 292/15/19 291/5/5 297/6/6 298/16/20 
f 270/8/19 292/15/19 298/16/20 282/7/20 
f 283/10/20 279/11/18 278/17/16 271/9/19 
s 64
f 295/15/13 294/5/10 299/6/11 275/16/12 
f 289/8/13 295/15/13 275/16/12 274/7/12 
f 290/10/12 285/11/17 284/17/15 288/9/13 
s 2
f 272/3/2 295/14/13 289/19/13 273/4/2 
s 4
f 276/3/4 283/14/20 282/19/20 277/4/4 
s 8
f 280/7/3 299/11/11 294/17/10 281/8/14 
s 32
f 286/7/9 297/11/6 291/17/5 287/8/1 
s 2
f 293/13/2 288/18/13 284/6/15 287/7/1 
f 273/4/2 289/19/13 288/18/13 293/13/2 
f 272/3/2 271/2/19 278/17/16 281/8/14 
s 4
f 296/13/4 298/18/20 297/6/6 286/7/9 
f 277/4/4 282/19/20 298/18/20 296/13/4 
f 276/3/4 275/2/12 299/17/11 280/8/3 
# 278 polygons

