# 3ds Max Wavefront OBJ Exporter v0.99 - (c)2007 guruware
# File Created: 30.11.2023 19:26:50

mtllib Silla_02.mtl

#
# object Silla_02
#

v  -7.8008 0.0000 7.0165
v  -7.5054 0.0000 5.1150
v  -4.9410 0.0000 5.1150
v  -5.0396 0.0000 7.0165
v  -3.3635 14.1179 9.7265
v  -3.1779 14.1179 2.4050
v  2.7428 14.1179 2.4050
v  2.9285 14.1179 9.7265
v  4.9066 0.0000 7.0027
v  4.8314 0.0000 5.1288
v  6.7913 0.0000 5.1288
v  7.0172 0.0000 7.0027
v  -9.0986 14.1179 2.4050
v  -8.6194 14.1179 -3.3861
v  -3.0182 14.1179 -3.3861
v  2.5831 14.1179 -3.3861
v  8.1844 14.1179 -3.3861
v  8.6635 14.1179 2.4050
v  -6.9005 0.0000 -5.1335
v  -6.9005 0.0000 -6.9980
v  -4.7372 0.0000 -6.9980
v  -4.7372 0.0000 -5.1335
v  -3.0182 14.1179 -9.7265
v  2.5831 14.1179 -9.7265
v  4.8564 0.0000 -5.1851
v  4.8564 0.0000 -6.9464
v  7.0197 0.0000 -6.9464
v  7.0197 0.0000 -5.1851
v  -9.6556 16.1869 9.7265
v  -3.3635 16.1869 9.7265
v  -3.1779 16.1869 2.4050
v  -9.0986 16.1869 2.4050
v  2.9285 16.1869 9.7265
v  2.7428 16.1869 2.4050
v  9.2205 16.1869 9.7265
v  8.6635 16.1869 2.4050
v  -3.0182 16.1869 -3.3861
v  -8.6194 16.1869 -3.3861
v  2.5831 16.1869 -3.3861
v  8.1844 16.1869 -3.3861
v  -7.7400 36.8152 -7.4876
v  -6.3408 36.8152 -7.4876
v  -6.3408 36.8152 -9.0344
v  -7.7400 36.8152 -9.0344
v  2.5831 16.1869 -9.7265
v  -3.0182 16.1869 -9.7265
v  5.8401 36.8152 -7.4876
v  7.2393 36.8152 -7.4876
v  7.2393 36.8152 -9.0344
v  5.8401 36.8152 -9.0344
v  -9.6556 14.1179 9.7265
v  9.2205 14.1179 9.7265
v  8.1844 14.1179 -9.7265
v  8.1844 16.1869 -9.7265
v  -8.6194 14.1179 -9.7265
v  -8.6194 16.1869 -9.7265
v  4.8314 14.1179 5.1288
v  4.9066 14.1179 7.0027
v  6.7913 14.1179 5.1288
v  7.0172 14.1179 7.0027
v  -7.5054 14.1179 5.1150
v  -7.8008 14.1179 7.0165
v  -4.9410 14.1179 5.1150
v  -5.0396 14.1179 7.0165
v  -6.9005 14.1179 -5.1335
v  -4.7372 14.1179 -5.1335
v  -6.9005 14.1179 -6.9980
v  -4.7372 14.1179 -6.9980
v  4.8564 14.1179 -5.1851
v  7.0197 14.1179 -5.1851
v  4.8564 14.1179 -6.9464
v  7.0197 14.1179 -6.9464
v  -6.3408 16.1869 -7.4876
v  -7.7400 16.1869 -7.4876
v  -6.3408 16.1869 -9.0344
v  -7.7400 16.1869 -9.0344
v  7.2393 16.1869 -7.4876
v  5.8401 16.1869 -7.4876
v  7.2393 16.1869 -9.0344
v  5.8401 16.1869 -9.0344
v  -6.0052 30.2612 -7.4065
v  -3.0026 30.5823 -7.4065
v  -3.0026 30.5823 -6.3432
v  -6.0052 30.2612 -6.3432
v  -6.0052 36.7433 -6.3432
v  -3.0026 37.2484 -6.3432
v  -3.0026 37.2484 -7.4065
v  -6.0052 36.7433 -7.4065
v  -3.0026 34.5250 -6.3432
v  -6.0052 34.0137 -6.3432
v  12.0106 29.2383 -6.3432
v  12.0106 29.2383 -7.4065
v  12.0106 32.0437 -7.4065
v  12.0106 32.0437 -6.3432
v  6.0053 30.1046 -7.4065
v  3.0027 30.5268 -7.4065
v  3.0027 34.4700 -7.4065
v  6.0053 33.8581 -7.4065
v  -12.0105 29.2383 -7.4065
v  -12.0105 29.2383 -6.3432
v  -12.0105 32.1820 -6.3432
v  -12.0105 32.1820 -7.4065
v  9.0079 29.6407 -7.4065
v  9.0079 29.6407 -6.3432
v  6.0053 30.1046 -6.3432
v  0.0001 30.7248 -7.4065
v  3.0027 30.5268 -6.3432
v  0.0001 30.7248 -6.3432
v  -9.0078 29.8798 -6.3432
v  -9.0078 29.8798 -7.4065
v  6.0053 36.7453 -6.3432
v  9.0079 35.7972 -6.3432
v  9.0079 35.7972 -7.4065
v  6.0053 36.7453 -7.4065
v  0.0001 37.5038 -6.3432
v  3.0027 37.2704 -6.3432
v  3.0027 37.2704 -7.4065
v  0.0001 37.5038 -7.4065
v  -9.0078 35.9346 -7.4065
v  -9.0078 35.9346 -6.3432
v  9.0079 32.9202 -6.3432
v  6.0053 33.8581 -6.3432
v  3.0027 34.4700 -6.3432
v  0.0001 34.8576 -6.3432
v  -9.0078 33.2280 -6.3432
v  -9.0078 33.2280 -7.4065
v  -6.0052 34.0137 -7.4065
v  -3.0026 34.5250 -7.4065
v  0.0001 34.8576 -7.4065
v  9.0079 32.9202 -7.4065
v  12.0106 34.8491 -6.3432
v  12.0106 34.8491 -7.4065
v  -12.0105 35.1258 -7.4065
v  -12.0105 35.1258 -6.3432
# 134 vertices

vn -0.6242 -0.5697 0.5347
vn -0.5272 -0.5859 -0.6154
vn 0.5934 -0.5747 -0.5636
vn 0.5608 -0.5802 0.5907
vn 0.0000 -0.7071 0.7071
vn 0.0000 -1.0000 0.0000
vn -0.0000 -1.0000 0.0000
vn -0.0000 -0.7071 0.7071
vn -0.5646 -0.5795 0.5877
vn -0.5899 -0.5753 -0.5667
vn 0.5386 -0.5839 -0.6074
vn 0.6141 -0.5713 0.5445
vn -0.7056 -0.7064 -0.0560
vn -0.6970 -0.7165 -0.0288
vn 0.0000 -1.0000 -0.0000
vn 0.6970 -0.7165 -0.0288
vn 0.7056 -0.7064 -0.0560
vn -0.5774 -0.5774 0.5774
vn -0.5774 -0.5774 -0.5774
vn 0.5774 -0.5774 -0.5774
vn 0.5774 -0.5774 0.5774
vn 0.0000 -0.7071 -0.7071
vn -0.6009 0.5735 0.5569
vn 0.0000 0.7071 0.7071
vn 0.0000 1.0000 -0.0000
vn -0.7056 0.7064 -0.0560
vn 0.6009 0.5735 0.5569
vn 0.7056 0.7064 -0.0560
vn -0.6970 0.7165 -0.0288
vn 0.6970 0.7165 -0.0288
vn -0.5774 0.5774 0.5774
vn 0.5774 0.5774 0.5774
vn 0.5774 0.5774 -0.5774
vn -0.5774 0.5774 -0.5774
vn 0.0000 0.7071 -0.7071
vn -0.6009 -0.5735 0.5569
vn 0.6009 -0.5735 0.5569
vn -0.3003 -0.9092 -0.2884
vn -0.3023 -0.8998 0.3146
vn 0.3023 -0.8902 -0.3409
vn 0.2963 -0.9182 0.2628
vn -0.3017 -0.8860 -0.3522
vn -0.2941 -0.9220 0.2519
vn 0.2998 -0.9105 -0.2847
vn 0.3023 -0.8984 0.3185
vn -0.3015 -0.9045 0.3015
vn 0.3015 -0.9045 0.3015
vn -0.3015 -0.9045 -0.3015
vn 0.3015 -0.9045 -0.3015
vn 0.3015 0.9045 0.3015
vn -0.3015 0.9045 0.3015
vn 0.3015 0.9045 -0.3015
vn -0.3015 0.9045 -0.3015
vn 0.0819 -0.7001 -0.7093
vn 0.0539 -0.6983 -0.7138
vn 0.0539 -0.6983 0.7138
vn 0.0819 -0.7001 0.7093
vn -0.1530 0.7011 0.6965
vn -0.0898 0.7104 0.6980
vn -0.0898 0.7104 -0.6980
vn -0.1530 0.7011 -0.6965
vn 0.0000 0.0000 1.0000
vn 0.5408 -0.6179 0.5707
vn 0.5408 -0.6179 -0.5707
vn 0.7071 0.0000 -0.7071
vn 0.7071 0.0000 0.7071
vn -0.1030 -0.6980 -0.7086
vn -0.0717 -0.6949 -0.7155
vn 0.0000 0.0000 -1.0000
vn -0.5180 -0.6404 -0.5671
vn -0.5180 -0.6404 0.5671
vn -0.7071 0.0000 0.7071
vn -0.7071 0.0000 -0.7071
vn -0.1013 -0.7020 -0.7049
vn -0.1013 -0.7020 0.7049
vn -0.1030 -0.6980 0.7086
vn -0.0064 -0.6939 -0.7201
vn -0.0717 -0.6949 0.7155
vn -0.0064 -0.6939 0.7201
vn 0.1169 -0.6875 0.7167
vn 0.1169 -0.6875 -0.7167
vn 0.1711 0.7008 0.6925
vn 0.2129 0.6743 0.7071
vn 0.2129 0.6743 -0.7071
vn 0.1711 0.7008 -0.6925
vn -0.0026 0.7245 0.6893
vn 0.0897 0.7119 0.6965
vn 0.0897 0.7119 -0.6965
vn -0.0026 0.7245 -0.6893
vn -0.1839 0.6827 -0.7071
vn -0.1839 0.6827 0.7071
vn 0.6482 0.4750 0.5952
vn 0.6482 0.4750 -0.5952
vn -0.6394 0.4900 -0.5925
vn -0.6394 0.4900 0.5925
# 95 vertex normals

vt 1.0000 0.0000 0.0000
vt 1.0000 0.3333 0.0000
vt 0.6667 0.3333 0.0000
vt 0.6667 0.0000 0.0000
vt 0.3333 0.3333 0.0000
vt 0.3333 0.0000 0.0000
vt -0.0000 0.3333 0.0000
vt -0.0000 0.0000 0.0000
vt 1.0000 0.6667 0.0000
vt 0.6667 0.6667 0.0000
vt 0.3333 0.6667 0.0000
vt -0.0000 0.6667 0.0000
vt 1.0000 1.0000 0.0000
vt 0.6667 1.0000 0.0000
vt 0.3333 1.0000 0.0000
vt -0.0000 1.0000 0.0000
vt 0.0000 0.0000 0.0000
vt 0.0000 0.3333 0.0000
vt 0.0000 0.6667 0.0000
vt 0.0000 1.0000 0.0000
vt 0.7500 1.0000 0.0000
vt 0.6250 1.0000 0.0000
vt 0.6250 0.0000 0.0000
vt 0.7500 0.0000 0.0000
vt 0.2500 0.0000 0.0000
vt 0.3750 0.0000 0.0000
vt 0.3750 1.0000 0.0000
vt 0.2500 1.0000 0.0000
vt 0.3750 0.5000 0.0000
vt 0.2500 0.5000 0.0000
vt 1.0000 0.5000 0.0000
vt 0.0000 0.5000 0.0000
vt 0.1250 1.0000 0.0000
vt 0.1250 0.0000 0.0000
vt 0.5000 1.0000 0.0000
vt 0.5000 0.0000 0.0000
vt 0.8750 0.0000 0.0000
vt 0.8750 1.0000 0.0000
vt 0.8750 0.5000 0.0000
vt 0.7500 0.5000 0.0000
vt 0.6250 0.5000 0.0000
vt 0.5000 0.5000 0.0000
vt 0.1250 0.5000 0.0000
# 43 texture coords

o Silla_02
g Silla_02
usemtl wire_027177148
s 2
f 1/1/1 2/2/2 3/3/3 4/4/4 
f 5/4/5 6/3/6 7/5/7 8/6/8 
f 9/6/9 10/5/10 11/7/11 12/8/12 
f 13/2/13 14/9/14 15/10/15 6/3/6 
f 6/3/6 15/10/15 16/11/15 7/5/7 
f 7/5/7 16/11/15 17/12/16 18/7/17 
f 19/9/18 20/13/19 21/14/20 22/10/21 
f 15/10/15 23/14/22 24/15/22 16/11/15 
f 25/11/18 26/15/19 27/16/20 28/12/21 
s 4
f 29/17/23 30/6/24 31/5/25 32/18/26 
f 30/6/24 33/4/24 34/3/25 31/5/25 
f 33/4/24 35/1/27 36/2/28 34/3/25 
f 32/18/26 31/5/25 37/11/25 38/19/29 
f 31/5/25 34/3/25 39/10/25 37/11/25 
f 34/3/25 36/2/28 40/9/30 39/10/25 
f 41/19/31 42/11/32 43/15/33 44/20/34 
f 37/11/25 39/10/25 45/14/35 46/15/35 
f 47/10/31 48/9/32 49/13/33 50/14/34 
s 8
f 51/17/36 5/6/5 30/15/24 29/20/23 
f 5/6/5 8/4/8 33/14/24 30/15/24 
f 8/4/8 52/1/37 35/13/27 33/14/24 
s 16
f 52/17/37 18/6/17 36/15/28 35/20/27 
f 18/6/17 17/4/16 40/14/30 36/15/28 
f 17/4/16 53/1/20 54/13/33 40/14/30 
s 32
f 53/17/20 24/6/22 45/15/35 54/20/33 
f 24/6/22 23/4/22 46/14/35 45/15/35 
f 23/4/22 55/1/19 56/13/34 46/14/35 
s 64
f 55/17/19 14/6/14 38/15/29 56/20/34 
f 14/6/14 13/4/13 32/14/26 38/15/29 
f 13/4/13 51/1/36 29/13/23 32/14/26 
s off
f 8/6/8 7/5/7 57/5/38 58/6/39 
f 7/5/7 18/7/17 59/7/40 57/5/38 
f 18/7/17 52/8/37 60/8/41 59/7/40 
f 52/8/37 8/6/8 58/6/39 60/8/41 
f 51/1/36 13/2/13 61/2/42 62/1/43 
f 13/2/13 6/3/6 63/3/44 61/2/42 
f 6/3/6 5/4/5 64/4/45 63/3/44 
f 5/4/5 51/1/36 62/1/43 64/4/45 
f 15/10/15 14/9/14 65/9/46 66/10/47 
f 14/9/14 55/13/19 67/13/48 65/9/46 
f 55/13/19 23/14/22 68/14/49 67/13/48 
f 23/14/22 15/10/15 66/10/47 68/14/49 
f 17/12/16 16/11/15 69/11/46 70/12/47 
f 16/11/15 24/15/22 71/15/48 69/11/46 
f 24/15/22 53/16/20 72/16/49 71/15/48 
f 53/16/20 17/12/16 70/12/47 72/16/49 
f 62/1/43 61/2/42 2/2/2 1/1/1 
f 61/2/42 63/3/44 3/3/3 2/2/2 
f 63/3/44 64/4/45 4/4/4 3/3/3 
f 64/4/45 62/1/43 1/1/1 4/4/4 
f 58/6/39 57/5/38 10/5/10 9/6/9 
f 57/5/38 59/7/40 11/7/11 10/5/10 
f 59/7/40 60/8/41 12/8/12 11/7/11 
f 60/8/41 58/6/39 9/6/9 12/8/12 
f 66/10/47 65/9/46 19/9/18 22/10/21 
f 65/9/46 67/13/48 20/13/19 19/9/18 
f 67/13/48 68/14/49 21/14/20 20/13/19 
f 68/14/49 66/10/47 22/10/21 21/14/20 
f 70/12/47 69/11/46 25/11/18 28/12/21 
f 69/11/46 71/15/48 26/15/19 25/11/18 
f 71/15/48 72/16/49 27/16/20 26/15/19 
f 72/16/49 70/12/47 28/12/21 27/16/20 
f 38/19/29 37/11/25 73/11/50 74/19/51 
f 37/11/25 46/15/35 75/15/52 73/11/50 
f 46/15/35 56/20/34 76/20/53 75/15/52 
f 56/20/34 38/19/29 74/19/51 76/20/53 
f 39/10/25 40/9/30 77/9/50 78/10/51 
f 40/9/30 54/13/33 79/13/52 77/9/50 
f 54/13/33 45/14/35 80/14/53 79/13/52 
f 45/14/35 39/10/25 78/10/51 80/14/53 
f 74/19/51 73/11/50 42/11/32 41/19/31 
f 73/11/50 75/15/52 43/15/33 42/11/32 
f 75/15/52 76/20/53 44/20/34 43/15/33 
f 76/20/53 74/19/51 41/19/31 44/20/34 
f 78/10/51 77/9/50 48/9/32 47/10/31 
f 77/9/50 79/13/52 49/13/33 48/9/32 
f 79/13/52 80/14/53 50/14/34 49/13/33 
f 80/14/53 78/10/51 47/10/31 50/14/34 
s 2
f 81/21/54 82/22/55 83/23/56 84/24/57 
s 4
f 85/25/58 86/26/59 87/27/60 88/28/61 
s 8
f 84/25/57 83/26/56 89/29/62 90/30/62 
s 16
f 91/17/63 92/1/64 93/31/65 94/32/66 
s 32
f 95/25/67 96/26/68 97/29/69 98/30/69 
s 64
f 99/17/70 100/1/71 101/31/72 102/32/73 
s 2
f 95/28/67 103/33/74 104/34/75 105/25/76 
f 106/35/77 96/27/68 107/26/78 108/36/79 
f 84/24/57 109/37/80 110/38/81 81/21/54 
s 4
f 111/24/82 112/37/83 113/38/84 114/21/85 
f 115/36/86 116/23/87 117/22/88 118/35/89 
f 88/28/61 119/33/90 120/34/91 85/25/58 
s 8
f 105/24/76 104/37/75 121/39/62 122/40/62 
f 108/36/79 107/23/78 123/41/62 124/42/62 
f 85/28/58 120/33/91 125/43/62 90/30/62 
s 32
f 81/24/54 110/37/81 126/39/69 127/40/69 
f 106/36/77 82/23/55 128/41/69 129/42/69 
f 114/28/85 113/33/84 130/43/69 98/30/69 
s 2
f 82/22/55 106/35/77 108/36/79 83/23/56 
s 4
f 86/26/59 115/36/86 118/35/89 87/27/60 
s 8
f 83/26/56 108/36/79 124/42/62 89/29/62 
s 32
f 82/23/55 81/24/54 127/40/69 128/41/69 
f 96/26/68 106/36/77 129/42/69 97/29/69 
s 2
f 96/27/68 95/28/67 105/25/76 107/26/78 
s 4
f 116/23/87 111/24/82 114/21/85 117/22/88 
s 8
f 107/23/78 105/24/76 122/40/62 123/41/62 
s 2
f 103/33/74 92/20/64 91/17/63 104/34/75 
s 4
f 112/37/83 131/1/92 132/13/93 113/38/84 
s 8
f 104/37/75 91/1/63 94/31/66 121/39/62 
s 32
f 113/33/84 132/20/93 93/32/65 130/43/69 
s 2
f 109/37/80 100/1/71 99/13/70 110/38/81 
s 4
f 119/33/90 133/20/94 134/17/95 120/34/91 
s 8
f 120/33/91 134/20/95 101/32/72 125/43/62 
s 32
f 110/37/81 99/1/70 102/31/73 126/39/69 
s 8
f 89/29/62 86/27/59 85/28/58 90/30/62 
s 16
f 93/31/65 132/13/93 131/20/92 94/32/66 
s 32
f 97/29/69 117/27/88 114/28/85 98/30/69 
s 64
f 101/31/72 134/13/95 133/20/94 102/32/73 
s 8
f 121/39/62 112/38/83 111/21/82 122/40/62 
f 123/41/62 116/22/87 115/35/86 124/42/62 
f 125/43/62 109/34/80 84/25/57 90/30/62 
s 32
f 126/39/69 119/38/90 88/21/61 127/40/69 
f 128/41/69 87/22/60 118/35/89 129/42/69 
f 130/43/69 103/34/74 95/25/67 98/30/69 
s 8
f 124/42/62 115/35/86 86/27/59 89/29/62 
s 32
f 127/40/69 88/21/61 87/22/60 128/41/69 
f 129/42/69 118/35/89 117/27/88 97/29/69 
s 8
f 122/40/62 111/21/82 116/22/87 123/41/62 
f 94/31/66 131/13/92 112/38/83 121/39/62 
s 32
f 93/32/65 92/17/64 103/34/74 130/43/69 
s 8
f 101/32/72 100/17/71 109/34/80 125/43/62 
s 32
f 102/31/73 133/13/94 119/38/90 126/39/69 
# 130 polygons

