# 3ds Max Wavefront OBJ Exporter v0.99 - (c)2007 guruware
# File Created: 30.11.2023 19:26:39

mtllib Silla_01.mtl

#
# object Silla_01
#

v  2.7935 14.8308 -0.4643
v  2.7935 14.8308 5.4087
v  -2.6329 14.8308 5.4087
v  -2.6329 14.8308 -0.4643
v  8.2197 14.8308 -0.4643
v  8.2197 14.8308 5.4087
v  -8.0591 14.8308 5.4087
v  -8.0591 14.8308 -0.4643
v  2.7935 0.0000 7.4602
v  2.5858 0.0000 9.9869
v  -2.4208 0.0000 9.9869
v  -2.6329 0.0000 7.4602
v  -2.6329 14.8308 -6.3373
v  2.7935 14.8308 -6.3373
v  7.0098 0.0000 7.4602
v  6.1147 0.0000 8.8590
v  8.2197 14.8308 -6.3373
v  -8.0591 14.8308 -6.3373
v  -5.9633 0.0000 8.8268
v  -6.8453 0.0000 7.4602
v  -2.6329 18.3052 11.2818
v  -2.6329 14.8308 11.2818
v  2.7935 14.8308 11.2818
v  2.7935 18.3052 11.2818
v  8.2197 18.3052 5.4087
v  8.2197 18.3052 -0.4643
v  2.7935 18.3052 -6.3373
v  -2.6329 18.3052 -6.3373
v  -8.0591 18.3052 -0.4643
v  -8.0591 18.3052 5.4087
v  6.7796 14.8308 9.1590
v  6.7796 18.3052 9.1590
v  -6.6286 18.3052 9.1014
v  -6.6286 14.8308 9.1014
v  -8.0591 18.3052 -6.3373
v  8.2197 18.3052 -6.3373
v  -6.8453 14.8308 6.3730
v  -5.9633 14.8308 7.7396
v  -2.6329 14.8308 6.3730
v  2.7935 14.8308 6.3730
v  7.0098 14.8308 6.3730
v  6.1147 14.8308 7.7718
v  2.5858 14.8308 8.8997
v  -2.4208 14.8308 8.8997
v  -6.8453 9.4490 6.9166
v  -5.9633 9.4490 8.2832
v  -2.6329 9.4490 6.9166
v  2.7935 9.4490 6.9166
v  7.0098 9.4490 6.9166
v  6.1147 9.4490 8.3154
v  2.5858 9.4490 9.4433
v  -2.4208 9.4490 9.4433
v  -6.8453 4.7245 7.1884
v  -5.9633 4.7245 8.5550
v  -2.6329 4.7245 7.1884
v  2.7935 4.7245 7.1884
v  7.0098 4.7245 7.1884
v  6.1147 4.7245 8.5872
v  2.5858 4.7245 9.7151
v  -2.4208 4.7245 9.7151
v  3.1135 15.9168 -6.1334
v  3.1135 19.1404 -5.8758
v  -2.9529 19.1404 -5.8758
v  -2.9529 15.9168 -6.1334
v  9.1800 15.9168 -6.1334
v  8.4769 19.1404 -5.8758
v  -9.0192 28.8124 -5.1585
v  -8.5101 25.5884 -5.3016
v  -2.9529 25.5884 -4.9172
v  -2.9529 28.8124 -4.6730
v  3.1135 28.8124 -4.6730
v  3.4360 32.1521 -4.3482
v  -3.2734 32.1521 -4.3482
v  -2.9529 10.0766 -6.4886
v  3.1135 10.0766 -6.4886
v  8.7385 28.8124 -5.1585
v  9.6949 31.3514 -5.0672
v  9.1800 10.0766 -6.4886
v  -9.0192 15.9168 -6.1334
v  -9.0192 10.0766 -6.4886
v  -9.9350 31.6185 -5.0686
v  -2.9529 41.1506 -9.2948
v  -2.9529 40.4832 -5.2302
v  3.1135 40.4832 -5.2302
v  3.1135 41.1506 -9.2948
v  8.7385 29.4799 -8.0402
v  7.9407 25.5884 -5.3016
v  7.9407 26.2559 -7.7973
v  3.1135 0.0054 -11.0997
v  3.1135 -0.0054 -7.4123
v  -2.9529 -0.0054 -7.4123
v  -2.9529 0.0054 -11.0997
v  -9.0192 16.5842 -8.5316
v  -8.5101 19.1404 -5.8758
v  -8.5101 19.8078 -8.1297
v  8.9301 37.3555 -4.7931
v  8.9301 38.0229 -8.6626
v  -8.3160 38.4846 -8.6683
v  -8.3160 37.8171 -5.3192
v  -9.0192 -0.0054 -7.4123
v  -9.0192 0.0054 -11.2818
v  9.1800 0.0054 -11.2818
v  9.1800 -0.0054 -7.4123
v  9.1800 16.5842 -8.5316
v  9.1800 10.4157 -9.3733
v  10.1465 34.1486 -4.9758
v  10.1465 34.8161 -8.2658
v  -9.0192 29.4799 -7.9593
v  -9.9350 32.2859 -8.1140
v  -9.0192 5.0356 -6.9504
v  -9.0192 5.2105 -10.3275
v  -3.3724 37.6259 -8.7102
v  -2.9529 16.5842 -7.7289
v  -2.9529 19.8078 -7.3270
v  -2.9529 5.2105 -9.8351
v  -2.9529 29.4799 -7.5994
v  -3.2734 31.9383 -7.9336
v  3.4988 37.6771 -8.8175
v  3.5253 34.6807 -8.2667
v  -3.3597 34.6551 -8.2678
v  3.1135 29.4799 -7.5994
v  3.1135 26.2559 -7.1755
v  -2.9529 26.2559 -7.1755
v  3.1135 16.5842 -7.7289
v  3.1135 10.4157 -8.5706
v  -2.9529 10.4157 -8.5706
v  3.1135 22.3644 -5.4446
v  3.1135 25.5884 -4.9172
v  -2.9529 22.3644 -5.4446
v  7.7739 22.3644 -5.4446
v  -8.0010 22.3644 -5.4446
v  8.4769 19.8078 -8.1297
v  7.7739 23.0319 -7.5544
v  -8.5101 26.2559 -7.7568
v  -8.0010 23.0319 -7.5544
v  -2.9529 23.0319 -6.7516
v  3.1135 23.0319 -6.7516
v  3.1135 19.8078 -7.3270
v  -2.9529 5.0356 -6.9504
v  3.1135 5.0356 -6.9504
v  9.1800 5.0356 -6.9504
v  9.1800 5.2105 -10.3275
v  -9.0192 10.4157 -9.3733
v  3.1135 5.2105 -9.8351
v  3.5253 35.7500 -4.4985
v  -3.3597 35.7500 -4.4985
v  -10.1466 34.6828 -4.9786
v  9.6949 32.0189 -8.1530
v  -10.1466 35.3503 -8.2687
v  3.4360 31.9511 -7.9330
# 150 vertices

vn 0.0000 -1.0000 -0.0000
vn 0.7071 -0.7071 -0.0000
vn 0.7314 -0.6683 0.1356
vn -0.7315 -0.6680 0.1367
vn -0.7071 -0.7071 -0.0000
vn 0.0000 -0.7271 -0.6865
vn 0.1160 -0.6530 0.7484
vn -0.1188 -0.6522 0.7486
vn 0.0000 -0.7071 -0.7071
vn 0.7363 -0.5626 -0.3759
vn 0.4732 -0.6209 0.6250
vn 0.5774 -0.5774 -0.5774
vn -0.5774 -0.5774 -0.5774
vn -0.4738 -0.6218 0.6236
vn -0.7372 -0.5624 -0.3744
vn -0.1867 0.6555 0.7318
vn -0.1867 -0.6555 0.7318
vn 0.1827 -0.6565 0.7319
vn 0.1827 0.6565 0.7319
vn 0.7314 0.6683 0.1356
vn 0.7071 0.7071 -0.0000
vn 0.0000 0.7071 -0.7071
vn -0.7071 0.7071 -0.0000
vn -0.7315 0.6680 0.1367
vn 0.5780 -0.6362 0.5110
vn 0.5780 0.6362 0.5110
vn -0.5791 0.6373 0.5084
vn -0.5791 -0.6373 0.5084
vn -0.5774 0.5774 -0.5774
vn 0.5774 0.5774 -0.5774
vn -0.2244 -0.9649 -0.1364
vn -0.3989 -0.7666 0.5031
vn 0.0000 -0.7418 -0.6706
vn 0.2250 -0.9646 -0.1374
vn 0.3971 -0.7682 0.5022
vn 0.1096 -0.7094 0.6962
vn -0.1120 -0.7104 0.6949
vn -0.8836 -0.0365 -0.4669
vn -0.6077 0.0626 0.7917
vn 0.0000 -0.0790 -0.9969
vn 0.8826 -0.0366 -0.4687
vn 0.6064 0.0627 0.7927
vn 0.1533 0.0779 0.9851
vn -0.1568 0.0778 0.9846
vn -0.8783 -0.0275 -0.4773
vn -0.6103 0.0455 0.7909
vn 0.0000 -0.0574 -0.9983
vn 0.8774 -0.0276 -0.4790
vn 0.6090 0.0456 0.7918
vn 0.1538 0.0568 0.9865
vn -0.1573 0.0567 0.9859
vn -0.0000 -0.0702 0.9975
vn -0.0000 -0.1061 0.9944
vn 0.7220 0.0195 0.6916
vn 0.6827 0.0739 0.7270
vn -0.7141 -0.1910 0.6735
vn -0.7341 -0.1454 0.6633
vn -0.0342 -0.1184 0.9924
vn -0.0386 -0.0879 0.9954
vn 0.0416 -0.0881 0.9952
vn 0.0563 -0.0279 0.9980
vn -0.0536 -0.0288 0.9981
vn 0.0000 -0.0760 0.9971
vn 0.7118 -0.2432 0.6589
vn 0.7497 -0.2282 0.6212
vn 0.7037 -0.0540 0.7085
vn -0.7194 0.0006 0.6945
vn -0.7037 -0.0540 0.7085
vn -0.7608 -0.1768 0.6244
vn -0.1927 0.7219 -0.6647
vn -0.1740 0.7241 0.6674
vn 0.1688 0.7322 0.6599
vn 0.2033 0.7309 -0.6515
vn 0.5947 -0.2352 -0.7687
vn 0.7184 -0.1285 0.6837
vn 0.6014 -0.1614 -0.7824
vn -0.0118 -0.6206 -0.7841
vn 0.0000 -0.7396 0.6730
vn 0.0118 -0.6206 -0.7841
vn -0.6826 0.1532 -0.7146
vn -0.6941 0.0348 0.7191
vn -0.6484 0.2108 -0.7315
vn 0.5202 0.4314 0.7371
vn 0.6131 0.5052 -0.6074
vn -0.5602 0.5576 -0.6126
vn -0.5279 0.5697 0.6299
vn -0.5822 -0.6013 0.5473
vn -0.5600 -0.5236 -0.6421
vn 0.5600 -0.5236 -0.6421
vn 0.5822 -0.6013 0.5473
vn 0.6886 0.1749 -0.7037
vn 0.6652 0.1180 -0.7373
vn 0.7707 0.0303 0.6365
vn 0.7707 0.0647 -0.6339
vn -0.6160 -0.2020 -0.7614
vn -0.6978 -0.1574 -0.6988
vn -0.7071 -0.0645 0.7042
vn -0.6784 0.1325 -0.7227
vn -0.0250 -0.1536 -0.9878
vn 0.0652 0.1292 -0.9895
vn 0.0710 0.1495 -0.9862
vn 0.0393 0.2359 -0.9710
vn 0.0282 -0.1308 -0.9910
vn 0.0106 -0.1276 -0.9918
vn 0.0128 -0.1581 -0.9873
vn 0.0020 -0.1510 -0.9885
vn -0.0065 -0.1344 -0.9909
vn -0.0372 -0.1297 -0.9909
vn -0.0635 -0.1301 -0.9895
vn 0.0517 -0.1302 -0.9901
vn -0.0652 0.1292 -0.9895
vn -0.0645 0.1851 -0.9806
vn 0.0645 0.1851 -0.9806
vn 0.0000 -0.1470 0.9891
vn 0.0394 -0.1184 0.9922
vn 0.6538 -0.0042 0.7567
vn -0.6566 -0.0536 0.7523
vn 0.6419 0.2468 -0.7260
vn 0.6407 0.0761 -0.7640
vn -0.6411 -0.1485 -0.7530
vn -0.6283 0.0232 -0.7776
vn 0.0782 0.0227 -0.9967
vn -0.0845 0.0227 -0.9962
vn -0.0735 0.1495 -0.9860
vn 0.0000 -0.0912 0.9958
vn 0.7071 -0.0645 0.7042
vn 0.6784 0.1325 -0.7227
vn -0.6652 0.1180 -0.7373
vn -0.0393 0.2359 -0.9710
vn 0.0507 0.1036 0.9933
vn -0.0449 0.1018 0.9938
vn -0.7452 0.1557 0.6484
vn 0.6733 -0.1979 -0.7124
vn -0.7659 0.1699 -0.6201
vn -0.0171 -0.1262 -0.9919
# 135 vertex normals

vt 0.3333 0.6667 0.0000
vt 0.3333 0.3333 0.0000
vt 0.6667 0.3333 0.0000
vt 0.6667 0.6667 0.0000
vt 0.0000 0.6667 0.0000
vt 0.0000 0.3333 0.0000
vt 1.0000 0.3333 0.0000
vt 1.0000 0.6667 0.0000
vt 0.3333 0.0000 0.0000
vt 0.6667 0.0000 0.0000
vt 0.6667 1.0000 0.0000
vt 0.3333 1.0000 0.0000
vt 0.0000 0.0000 0.0000
vt 0.0000 1.0000 0.0000
vt 1.0000 1.0000 0.0000
vt 1.0000 0.0000 0.0000
vt 0.3333 0.5833 0.0000
vt 0.6667 0.5833 0.0000
vt 0.0000 0.5833 0.0000
vt 1.0000 0.4167 0.0000
vt 0.6667 0.4167 0.0000
vt 0.3333 0.2500 0.0000
vt 0.6667 0.2500 0.0000
vt 0.6667 0.8333 0.0000
vt 0.3333 0.8333 0.0000
vt 0.0000 0.2500 0.0000
vt 0.0000 0.8333 0.0000
vt 1.0000 0.8333 0.0000
vt 1.0000 0.2500 0.0000
vt 0.4167 0.0000 0.0000
vt 0.4167 0.3333 0.0000
vt 0.8333 0.0000 0.0000
vt 0.8333 0.3333 0.0000
vt 0.1667 0.0000 0.0000
vt 0.1667 0.3333 0.0000
vt 0.7500 0.0000 0.0000
vt 0.7500 0.3333 0.0000
vt 0.0833 0.0000 0.0000
vt 0.0833 0.3333 0.0000
vt 0.4444 0.3333 0.0000
vt 0.4722 0.3333 0.0000
vt 0.6111 0.3333 0.0000
vt 0.5556 0.3333 0.0000
vt 0.7222 0.3333 0.0000
vt 0.7778 0.3333 0.0000
vt 0.5278 0.3333 0.0000
vt 0.3333 0.5000 0.0000
vt 0.3333 0.4167 0.0000
vt 0.6667 0.5000 0.0000
vt 0.0000 0.5000 0.0000
vt 0.0000 0.4167 0.0000
vt 1.0000 0.5000 0.0000
vt 1.0000 0.5833 0.0000
vt 0.5000 0.0000 0.0000
vt 0.5833 0.0000 0.0000
vt 0.5833 0.3333 0.0000
vt 0.5000 0.3333 0.0000
vt 0.6667 0.9167 0.0000
vt 0.3333 0.9167 0.0000
vt 0.0000 0.9167 0.0000
vt 1.0000 0.9167 0.0000
vt 0.9167 0.0000 0.0000
vt 0.9167 0.3333 0.0000
vt 0.3889 0.3333 0.0000
vt 0.3333 0.1667 0.0000
vt 0.6667 0.1667 0.0000
vt 0.0000 0.1667 0.0000
vt 1.0000 0.1667 0.0000
vt 0.2500 0.0000 0.0000
vt 0.2500 0.3333 0.0000
# 70 texture coords

o Silla_01
g Silla_01
usemtl wire_229166215
s 2
f 1/1/1 2/2/1 3/3/1 4/4/1 
f 5/5/2 6/6/3 2/2/1 1/1/1 
f 7/7/4 8/8/5 4/4/1 3/3/1 
f 9/2/6 10/9/7 11/10/8 12/3/6 
f 4/4/1 13/11/9 14/12/9 1/1/1 
f 15/6/10 16/13/11 10/9/7 9/2/6 
f 1/1/1 14/12/9 17/14/12 5/5/2 
f 8/8/5 18/15/13 13/11/9 4/4/1 
f 12/3/6 11/10/8 19/16/14 20/7/15 
s 8
f 21/2/16 22/9/17 23/10/18 24/3/19 
s 16
f 25/2/20 6/9/3 5/10/2 26/3/21 
s 32
f 27/2/22 14/9/9 13/10/9 28/3/22 
s 64
f 29/2/23 8/9/5 7/10/4 30/3/24 
s 8
f 24/3/19 23/10/18 31/16/25 32/7/26 
f 33/6/27 34/13/28 22/9/17 21/2/16 
s 32
f 28/3/22 13/10/9 18/16/13 35/7/29 
f 36/6/30 17/13/12 14/9/9 27/2/22 
s 16
f 26/3/21 5/10/2 17/16/12 36/7/30 
f 32/6/26 31/13/25 6/9/3 25/2/20 
s 64
f 30/3/24 7/10/4 34/16/28 33/7/27 
f 35/6/29 18/13/13 8/9/5 29/2/23 
s off
f 24/3/19 32/7/26 25/2/20 26/3/21 36/7/30 27/2/22 28/3/22 35/7/29 29/2/23 30/3/24 33/7/27 21/2/16 
f 34/16/28 7/7/4 37/7/31 38/16/32 
f 7/7/4 3/3/1 39/3/33 37/7/31 
f 3/3/1 2/2/1 40/2/33 39/3/33 
f 2/2/1 6/6/3 41/6/34 40/2/33 
f 6/6/3 31/13/25 42/13/35 41/6/34 
f 31/13/25 23/9/18 43/9/36 42/13/35 
f 23/9/18 22/10/17 44/10/37 43/9/36 
f 22/10/17 34/16/28 38/16/32 44/10/37 
f 38/16/32 37/7/31 45/7/38 46/16/39 
f 37/7/31 39/3/33 47/3/40 45/7/38 
f 39/3/33 40/2/33 48/2/40 47/3/40 
f 40/2/33 41/6/34 49/6/41 48/2/40 
f 41/6/34 42/13/35 50/13/42 49/6/41 
f 42/13/35 43/9/36 51/9/43 50/13/42 
f 43/9/36 44/10/37 52/10/44 51/9/43 
f 44/10/37 38/16/32 46/16/39 52/10/44 
f 45/7/38 53/7/45 54/16/46 46/16/39 
f 47/3/40 55/3/47 53/7/45 45/7/38 
f 48/2/40 56/2/47 55/3/47 47/3/40 
f 49/6/41 57/6/48 56/2/47 48/2/40 
f 50/13/42 58/13/49 57/6/48 49/6/41 
f 51/9/43 59/9/50 58/13/49 50/13/42 
f 52/10/44 60/10/51 59/9/50 51/9/43 
f 46/16/39 54/16/46 60/10/51 52/10/44 
s 2
f 61/1/52 62/17/53 63/18/53 64/4/52 
f 65/5/54 66/19/55 62/17/53 61/1/52 
f 67/7/56 68/20/57 69/21/58 70/3/59 
f 71/2/60 72/22/61 73/23/62 70/3/59 
f 64/4/52 74/24/63 75/25/63 61/1/52 
f 76/6/64 77/26/65 72/22/61 71/2/60 
f 61/1/52 75/25/63 78/27/66 65/5/54 
f 79/8/67 80/28/68 74/24/63 64/4/52 
f 70/3/59 73/23/62 81/29/69 67/7/56 
s 8
f 82/2/70 83/9/71 84/10/72 85/3/73 
s 16
f 86/2/74 76/9/64 87/30/75 88/31/76 
s 32
f 89/2/77 90/9/78 91/10/78 92/3/79 
s 64
f 93/2/80 79/9/67 94/30/81 95/31/82 
s 8
f 85/3/73 84/10/72 96/16/83 97/7/84 
f 98/6/85 99/13/86 83/9/71 82/2/70 
s 32
f 92/3/79 91/10/78 100/16/87 101/7/88 
f 102/6/89 103/13/90 90/9/78 89/2/77 
s 16
f 104/3/91 65/10/54 78/32/66 105/33/92 
f 97/6/84 96/13/83 106/34/93 107/35/94 
s 64
f 108/3/95 67/10/56 81/36/69 109/37/96 
f 101/6/88 100/13/87 110/38/97 111/39/98 
s off
f 112/7/99 98/7/85 82/2/70 
f 113/40/100 93/2/80 95/31/82 114/41/101 
f 92/3/79 101/7/88 111/33/98 115/42/102 
f 116/43/103 108/3/95 109/37/96 117/3/104 
f 82/2/70 85/3/73 118/7/105 112/7/99 
f 112/7/99 118/7/105 119/44/106 120/45/107 
f 116/43/103 121/40/108 122/41/109 123/46/110 
f 113/40/100 124/43/111 125/40/112 126/43/113 
f 85/3/73 97/7/84 118/7/105 
f 118/7/105 97/7/84 107/3/94 119/44/106 
f 121/40/108 86/2/74 88/31/76 122/41/109 
f 124/43/111 104/3/91 105/33/92 125/40/112 
s 2
f 127/47/114 128/48/115 69/21/58 129/49/114 
f 130/50/116 87/51/75 128/48/115 127/47/114 
f 131/52/117 94/53/81 63/18/53 129/49/114 
s 16
f 130/54/116 66/55/55 132/56/118 133/57/119 
s 64
f 131/54/117 68/55/57 134/56/120 135/57/121 
s off
f 135/57/121 134/56/120 123/46/110 136/57/122 
f 137/57/123 138/46/124 114/41/101 136/57/122 
f 133/57/119 132/56/118 138/46/124 137/57/123 
s 2
f 74/24/63 139/58/125 140/59/125 75/25/63 
f 75/25/63 140/59/125 141/60/126 78/27/66 
f 80/28/68 110/61/97 139/58/125 74/24/63 
s 16
f 78/32/66 141/62/126 142/63/127 105/33/92 
s 64
f 80/34/68 79/9/67 93/2/80 143/35/128 
s off
f 143/3/128 93/2/80 113/40/100 126/43/113 
f 125/40/112 144/64/129 115/42/102 126/43/113 
f 105/33/92 142/63/127 144/64/129 125/40/112 
s 2
f 145/65/130 84/9/72 83/10/71 146/66/131 
f 106/67/93 96/13/83 84/9/72 145/65/130 
f 146/66/131 83/10/71 99/16/86 147/68/132 
s 16
f 106/34/93 77/69/65 148/70/133 107/35/94 
s 64
f 147/32/132 99/16/86 98/7/85 149/33/134 
s off
f 149/33/134 98/7/85 112/7/99 120/45/107 
f 119/44/106 150/56/135 117/3/104 120/45/107 
f 107/3/94 148/57/133 150/56/135 119/44/106 
s 2
f 62/17/53 127/47/114 129/49/114 63/18/53 
f 66/19/55 130/50/116 127/47/114 62/17/53 
s 64
f 94/30/81 131/54/117 135/57/121 95/31/82 
s off
f 95/31/82 135/57/121 136/57/122 114/41/101 
s 2
f 94/53/81 79/8/67 64/4/52 63/18/53 
s 16
f 66/55/55 65/10/54 104/3/91 132/56/118 
s off
f 138/46/124 124/43/111 113/40/100 114/41/101 
f 132/56/118 104/3/91 124/43/111 138/46/124 
s 2
f 68/20/57 131/52/117 129/49/114 69/21/58 
s 16
f 87/30/75 130/54/116 133/57/119 88/31/76 
s off
f 122/41/109 137/57/123 136/57/122 123/46/110 
f 88/31/76 133/57/119 137/57/123 122/41/109 
s 2
f 128/48/115 71/2/60 70/3/59 69/21/58 
f 87/51/75 76/6/64 71/2/60 128/48/115 
s 64
f 68/55/57 67/10/56 108/3/95 134/56/120 
s off
f 134/56/120 108/3/95 116/43/103 123/46/110 
s 2
f 72/22/61 145/65/130 146/66/131 73/23/62 
f 77/26/65 106/67/93 145/65/130 72/22/61 
f 73/23/62 146/66/131 147/68/132 81/29/69 
s 64
f 81/36/69 147/32/132 149/33/134 109/37/96 
s off
f 109/37/96 149/33/134 120/45/107 117/3/104 
s 16
f 77/69/65 76/9/64 86/2/74 148/70/133 
s off
f 150/56/135 121/40/108 116/43/103 117/3/104 
f 148/57/133 86/2/74 121/40/108 150/56/135 
s 64
f 110/38/97 80/34/68 143/35/128 111/39/98 
s off
f 111/33/98 143/3/128 126/43/113 115/42/102 
s 2
f 139/58/125 91/11/78 90/12/78 140/59/125 
f 140/59/125 90/12/78 103/14/90 141/60/126 
f 110/61/97 100/15/87 91/11/78 139/58/125 
s 16
f 141/62/126 103/16/90 102/7/89 142/63/127 
s off
f 144/64/129 89/2/77 92/3/79 115/42/102 
f 142/63/127 102/7/89 89/2/77 144/64/129 
f 53/7/45 20/7/15 19/16/14 54/16/46 
f 55/3/47 12/3/6 20/7/15 53/7/45 
f 56/2/47 9/2/6 12/3/6 55/3/47 
f 57/6/48 15/6/10 9/2/6 56/2/47 
f 58/13/49 16/13/11 15/6/10 57/6/48 
f 59/9/50 10/9/7 16/13/11 58/13/49 
f 60/10/51 11/10/8 10/9/7 59/9/50 
f 54/16/46 19/16/14 11/10/8 60/10/51 
# 141 polygons - 2 triangles

