# 3ds Max Wavefront OBJ Exporter v0.99 - (c)2007 guruware
# File Created: 06.01.2024 11:04:42

mtllib Door squared.mtl

#
# object Squared
#

v  153.5275 -0.0000 -24.3860
v  118.0948 -0.0000 -24.5591
v  118.0948 98.4252 -24.5591
v  153.5275 98.4252 -24.3860
v  118.0851 98.4252 -22.5591
v  118.0851 -0.0000 -22.5591
v  153.5177 -0.0000 -22.3861
v  153.5177 98.4252 -22.3860
v  188.9601 -0.0000 -24.2130
v  188.9601 98.4252 -24.2130
v  188.9503 -0.0000 -22.2130
v  188.9503 98.4252 -22.2130
v  118.0515 -0.0000 -15.6852
v  116.0515 -0.0000 -15.6949
v  116.0997 0.0000 -25.5688
v  118.0997 0.0000 -25.5591
v  118.0515 98.4252 -15.6852
v  116.0515 98.4252 -15.6949
v  118.0997 98.4252 -25.5591
v  116.0997 98.4252 -25.5688
v  190.9167 -0.0000 -15.3293
v  188.9168 -0.0000 -15.3391
v  188.9650 0.0000 -25.2130
v  190.9650 0.0000 -25.2032
v  190.9167 98.4252 -15.3293
v  188.9168 98.4252 -15.3391
v  190.9650 98.4252 -25.2032
v  188.9650 98.4252 -25.2130
v  190.9167 100.4252 -15.3293
v  116.0515 100.4252 -15.6949
v  190.9650 100.4252 -25.2032
v  116.0997 100.4252 -25.5688
# 32 vertices

vn 0.5802 -0.5774 -0.5745
vn -0.5745 -0.5774 -0.5802
vn -0.5745 0.5774 -0.5802
vn 0.5802 0.5774 -0.5745
vn -0.5802 0.5774 0.5745
vn -0.5802 -0.5774 0.5745
vn 0.5745 -0.5774 0.5802
vn 0.5745 0.5774 0.5802
vn 0.7036 -0.0000 0.7106
vn -0.7106 -0.0000 0.7036
vn 0.7106 0.0000 -0.7036
vn -0.7036 0.0000 -0.7106
# 12 vertex normals

vt 0.1855 0.0213 0.0000
vt 0.3370 0.0232 0.0000
vt 0.3317 0.4439 0.0000
vt 0.1803 0.4420 0.0000
vt 0.0206 0.4404 0.0000
vt 0.0253 0.0197 0.0000
vt 0.1768 0.0213 0.0000
vt 0.1720 0.4420 0.0000
vt 0.0120 0.4404 0.0000
vt 0.0168 0.0197 0.0000
vt 0.0254 0.0112 0.0000
vt 0.1769 0.0127 0.0000
vt 0.1719 0.4505 0.0000
vt 0.0204 0.4490 0.0000
vt 0.3620 0.0212 0.0000
vt 0.5133 0.0241 0.0000
vt 0.5059 0.4446 0.0000
vt 0.3538 0.4417 0.0000
vt 0.5155 0.4447 0.0000
vt 0.5215 0.0239 0.0000
vt 0.6730 0.0254 0.0000
vt 0.6674 0.4460 0.0000
vt 0.6816 0.0255 0.0000
vt 0.6760 0.4460 0.0000
vt 0.5216 0.0155 0.0000
vt 0.6731 0.0168 0.0000
vt 0.6673 0.4545 0.0000
vt 0.5158 0.4534 0.0000
vt 0.0838 0.5703 0.0000
vt 0.0753 0.5705 0.0000
vt 0.0742 0.5284 0.0000
vt 0.0828 0.5281 0.0000
vt 0.0944 0.9909 0.0000
vt 0.0859 0.9911 0.0000
vt 0.1260 0.5693 0.0000
vt 0.1366 0.9898 0.0000
vt 0.4310 0.5729 0.0000
vt 0.4196 0.5729 0.0000
vt 0.4196 0.9921 0.0000
vt 0.4310 0.9921 0.0000
vt 0.0331 0.5716 0.0000
vt 0.0437 0.9922 0.0000
vt 0.2189 0.5711 0.0000
vt 0.2104 0.5711 0.0000
vt 0.2104 0.5289 0.0000
vt 0.2189 0.5289 0.0000
vt 0.2188 0.9918 0.0000
vt 0.2103 0.9918 0.0000
vt 0.2611 0.5711 0.0000
vt 0.2610 0.9918 0.0000
vt 0.1596 0.5711 0.0000
vt 0.1682 0.5711 0.0000
vt 0.1681 0.9918 0.0000
vt 0.1595 0.9918 0.0000
vt 0.3277 0.9824 0.0000
vt 0.3328 0.6625 0.0000
vt 0.3413 0.6626 0.0000
vt 0.3362 0.9826 0.0000
vt 0.3835 0.6633 0.0000
vt 0.3784 0.9832 0.0000
vt 0.3870 0.9834 0.0000
vt 0.3920 0.6634 0.0000
vt 0.2855 0.9818 0.0000
vt 0.2906 0.6618 0.0000
vt 0.3275 0.9910 0.0000
vt 0.2853 0.9903 0.0000
vt 0.3329 0.6539 0.0000
vt 0.2907 0.6533 0.0000
# 68 texture coords

o Squared
g Squared
usemtl 01___Default
s off
f 1/1/1 2/2/2 3/3/3 4/4/4 
f 5/5/5 6/6/6 7/7/7 8/8/8 
f 3/9/3 2/10/2 6/6/6 5/5/5 
f 7/7/7 1/1/1 4/4/4 8/8/8 
f 6/6/6 2/11/2 1/12/1 7/7/7 
f 4/13/4 3/14/3 5/5/5 8/8/8 
f 9/15/1 1/16/2 4/17/3 10/18/4 
f 8/19/5 7/20/6 11/21/7 12/22/8 
f 4/17/3 1/16/2 7/20/6 8/19/5 
f 11/21/7 9/23/1 10/24/4 12/22/8 
f 7/20/6 1/25/2 9/26/1 11/21/7 
f 10/27/4 4/28/3 8/19/5 12/22/8 
f 13/29/7 14/30/6 15/31/2 16/32/1 
f 14/30/6 13/29/7 17/33/9 18/34/10 
f 13/29/7 16/35/1 19/36/11 17/33/9 
f 16/37/1 15/38/2 20/39/12 19/40/11 
f 15/41/2 14/30/6 18/34/10 20/42/12 
f 21/43/7 22/44/6 23/45/2 24/46/1 
f 22/44/6 21/43/7 25/47/9 26/48/10 
f 21/43/7 24/49/1 27/50/11 25/47/9 
f 24/51/1 23/52/2 28/53/12 27/54/11 
f 23/52/2 22/44/6 26/48/10 28/53/12 
f 18/55/6 25/56/7 29/57/8 30/58/5 
f 30/58/5 29/57/8 31/59/4 32/60/3 
f 20/61/2 32/60/3 31/59/4 27/62/1 
f 18/55/6 20/63/2 27/64/1 25/56/7 
f 18/55/6 30/65/5 32/66/3 20/63/2 
f 29/67/8 25/56/7 27/64/1 31/68/4 
# 28 polygons

