# 3ds Max Wavefront OBJ Exporter v0.99 - (c)2007 guruware
# File Created: 14.01.2024 13:53:56

mtllib Button_straight.mtl

#
# object Circle_straight
#

v  17.8963 0.0000 -4.2868
v  16.2259 0.0000 -3.5950
v  14.5556 0.0000 -4.2868
v  13.8637 0.0000 -5.9572
v  14.5556 0.0000 -7.6275
v  16.2259 0.0000 -8.3194
v  17.8963 0.0000 -7.6275
v  18.5881 0.0000 -5.9572
v  17.8906 0.5832 -7.6219
v  18.5801 0.5832 -5.9572
v  16.2259 0.5832 -8.3114
v  14.5613 0.5832 -7.6219
v  13.8717 0.5832 -5.9572
v  14.5613 0.5832 -4.2925
v  16.2259 0.5832 -3.6030
v  17.8906 0.5832 -4.2925
v  17.8360 0.5906 -7.5672
v  18.5029 0.5906 -5.9572
v  16.2259 0.5906 -8.2342
v  14.6159 0.5906 -7.5672
v  13.9490 0.5906 -5.9572
v  14.6159 0.5906 -4.3471
v  16.2259 0.5906 -3.6802
v  17.8360 0.5906 -4.3471
v  17.8360 1.1811 -7.5672
v  18.5029 1.1811 -5.9572
v  16.2259 1.1811 -8.2342
v  14.6159 1.1811 -7.5672
v  13.9490 1.1811 -5.9572
v  14.6159 1.1811 -4.3471
v  16.2259 1.1811 -3.6802
v  17.8360 1.1811 -4.3471
v  17.7757 1.1811 -7.5070
v  18.4177 1.1811 -5.9572
v  16.2259 1.1811 -8.1489
v  14.6761 1.1811 -7.5070
v  14.0342 1.1811 -5.9572
v  14.6761 1.1811 -4.4074
v  16.2259 1.1811 -3.7654
v  17.7757 1.1811 -4.4074
v  18.4177 0.5906 -5.9572
v  17.7757 0.5906 -7.5070
v  17.7155 0.5906 -7.4467
v  18.3325 0.5906 -5.9572
v  16.2259 0.5906 -8.1489
v  16.2259 0.5906 -8.0637
v  14.6761 0.5906 -7.5070
v  14.7364 0.5906 -7.4467
v  14.0342 0.5906 -5.9572
v  14.1194 0.5906 -5.9572
v  14.6761 0.5906 -4.4074
v  14.7364 0.5906 -4.4676
v  16.2259 0.5906 -3.7654
v  16.2259 0.5906 -3.8507
v  17.7757 0.5906 -4.4074
v  17.7155 0.5906 -4.4676
v  17.7155 1.3484 -7.4467
v  18.3325 1.3484 -5.9572
v  17.7155 1.3484 -4.4676
v  16.2259 1.3484 -3.8507
v  14.7364 1.3484 -4.4676
v  14.1194 1.3484 -5.9572
v  14.7364 1.3484 -7.4467
v  16.2259 1.3484 -8.0637
v  17.6929 1.3780 -7.4241
v  16.2259 1.3780 -8.0317
v  14.7590 1.3780 -7.4241
v  14.1514 1.3780 -5.9572
v  14.7590 1.3780 -4.4902
v  16.2259 1.3780 -3.8826
v  17.6929 1.3780 -4.4902
v  18.3005 1.3780 -5.9572
v  17.7098 1.3706 -7.4411
v  16.2259 1.3706 -8.0557
v  14.7420 1.3706 -7.4411
v  14.1274 1.3706 -5.9572
v  14.7420 1.3706 -4.4733
v  16.2259 1.3706 -3.8586
v  17.7098 1.3706 -4.4733
v  18.3245 1.3706 -5.9572
# 80 vertices

vn 0.5519 -0.6251 0.5519
vn 0.0000 -0.6251 0.7805
vn -0.5519 -0.6251 0.5519
vn -0.7805 -0.6251 0.0000
vn -0.5519 -0.6251 -0.5519
vn -0.0000 -0.6251 -0.7805
vn 0.5519 -0.6251 -0.5519
vn 0.7805 -0.6251 -0.0000
vn 0.5626 0.6057 -0.5626
vn 0.7957 0.6057 0.0000
vn -0.0000 0.6057 -0.7957
vn -0.5626 0.6057 -0.5626
vn -0.7957 0.6057 0.0000
vn -0.5626 0.6057 0.5626
vn 0.0000 0.6057 0.7957
vn 0.5626 0.6057 0.5626
vn 0.4546 0.7660 -0.4546
vn 0.6429 0.7660 -0.0000
vn -0.0000 0.7660 -0.6429
vn -0.4546 0.7660 -0.4546
vn -0.6429 0.7660 0.0000
vn -0.4546 0.7660 0.4546
vn -0.0000 0.7660 0.6429
vn 0.4545 0.7660 0.4546
vn 0.5490 0.6303 -0.5490
vn 0.7763 0.6303 -0.0000
vn -0.0000 0.6303 -0.7764
vn -0.5490 0.6303 -0.5490
vn -0.7764 0.6303 0.0000
vn -0.5490 0.6303 0.5490
vn -0.0000 0.6303 0.7764
vn 0.5489 0.6303 0.5490
vn -0.4203 0.8042 0.4203
vn -0.5944 0.8042 -0.0000
vn 0.0000 0.8042 0.5944
vn 0.4203 0.8042 0.4203
vn 0.5944 0.8042 -0.0000
vn 0.4203 0.8042 -0.4203
vn 0.0000 0.8042 -0.5944
vn -0.4203 0.8042 -0.4203
vn -0.7764 0.6303 -0.0000
vn 0.0000 0.6303 0.7764
vn -0.0000 0.8042 -0.5944
vn 0.5490 0.6303 0.5490
vn 0.7764 0.6303 -0.0000
vn -0.5944 0.8042 0.0000
vn 0.0000 0.6303 -0.7764
vn -0.0000 0.8042 0.5944
vn 0.6974 0.1655 -0.6974
vn 0.9862 0.1655 0.0000
vn 0.6974 0.1655 0.6974
vn 0.0000 0.1655 0.9862
vn -0.6974 0.1655 0.6974
vn -0.9862 0.1655 0.0000
vn -0.6974 0.1655 -0.6974
vn -0.0000 0.1655 -0.9862
vn 0.1306 0.9828 -0.1306
vn -0.0000 0.9828 -0.1847
vn -0.1306 0.9828 -0.1306
vn -0.1847 0.9828 0.0000
vn -0.1306 0.9828 0.1306
vn 0.0000 0.9828 0.1847
vn 0.1306 0.9828 0.1306
vn 0.1847 0.9828 0.0000
vn 0.5232 0.6726 -0.5232
vn 0.0000 0.6726 -0.7400
vn -0.5232 0.6726 -0.5232
vn -0.7400 0.6726 0.0000
vn -0.5232 0.6726 0.5232
vn 0.0000 0.6726 0.7400
vn 0.5232 0.6726 0.5232
vn 0.7400 0.6726 0.0000
# 72 vertex normals

vt 0.8137 0.6489 0.0000
vt 0.8531 0.7289 0.0000
vt 0.8245 0.8134 0.0000
vt 0.7444 0.8529 0.0000
vt 0.6599 0.8242 0.0000
vt 0.6205 0.7442 0.0000
vt 0.6492 0.6597 0.0000
vt 0.7292 0.6202 0.0000
vt 0.6379 0.9872 0.0000
vt 0.5472 0.9845 0.0000
vt 0.5495 0.9555 0.0000
vt 0.6373 0.9581 0.0000
vt 0.4572 0.9725 0.0000
vt 0.4625 0.9439 0.0000
vt 0.3691 0.9517 0.0000
vt 0.3771 0.9238 0.0000
vt 0.2835 0.9228 0.0000
vt 0.2931 0.8951 0.0000
vt 0.9893 0.9085 0.0000
vt 0.9050 0.9409 0.0000
vt 0.8959 0.9134 0.0000
vt 0.9788 0.8814 0.0000
vt 0.8178 0.9652 0.0000
vt 0.8114 0.9369 0.0000
vt 0.7284 0.9808 0.0000
vt 0.7249 0.9519 0.0000
vt 0.5498 0.9519 0.0000
vt 0.6372 0.9546 0.0000
vt 0.4631 0.9404 0.0000
vt 0.3781 0.9204 0.0000
vt 0.2956 0.8922 0.0000
vt 0.8948 0.9100 0.0000
vt 0.9761 0.8786 0.0000
vt 0.8106 0.9334 0.0000
vt 0.7244 0.9484 0.0000
vt 0.5522 0.9226 0.0000
vt 0.6366 0.9252 0.0000
vt 0.4685 0.9115 0.0000
vt 0.3862 0.8922 0.0000
vt 0.3051 0.8644 0.0000
vt 0.8855 0.8820 0.0000
vt 0.9654 0.8509 0.0000
vt 0.8041 0.9047 0.0000
vt 0.7209 0.9192 0.0000
vt 0.5525 0.9187 0.0000
vt 0.6365 0.9213 0.0000
vt 0.4691 0.9077 0.0000
vt 0.3873 0.8884 0.0000
vt 0.3079 0.8612 0.0000
vt 0.8843 0.8783 0.0000
vt 0.9625 0.8479 0.0000
vt 0.8033 0.9009 0.0000
vt 0.7204 0.9153 0.0000
vt 0.6360 0.8918 0.0000
vt 0.5549 0.8894 0.0000
vt 0.5552 0.8855 0.0000
vt 0.6359 0.8879 0.0000
vt 0.4745 0.8787 0.0000
vt 0.4751 0.8749 0.0000
vt 0.3954 0.8602 0.0000
vt 0.3965 0.8565 0.0000
vt 0.3174 0.8333 0.0000
vt 0.3203 0.8301 0.0000
vt 0.9517 0.8202 0.0000
vt 0.8750 0.8504 0.0000
vt 0.8738 0.8467 0.0000
vt 0.9487 0.8172 0.0000
vt 0.7968 0.8722 0.0000
vt 0.7959 0.8684 0.0000
vt 0.7168 0.8861 0.0000
vt 0.7164 0.8822 0.0000
vt 0.7075 0.5992 0.0000
vt 0.6280 0.6009 0.0000
vt 0.6272 0.5635 0.0000
vt 0.7067 0.5618 0.0000
vt 0.5484 0.6025 0.0000
vt 0.5476 0.5651 0.0000
vt 0.4689 0.6042 0.0000
vt 0.4681 0.5668 0.0000
vt 0.3893 0.6059 0.0000
vt 0.3885 0.5685 0.0000
vt 0.3098 0.6076 0.0000
vt 0.3090 0.5702 0.0000
vt 0.9462 0.5941 0.0000
vt 0.8666 0.5958 0.0000
vt 0.8659 0.5584 0.0000
vt 0.9454 0.5567 0.0000
vt 0.7871 0.5975 0.0000
vt 0.7863 0.5601 0.0000
vt 0.5985 0.7027 0.0000
vt 0.5896 0.7809 0.0000
vt 0.5280 0.8299 0.0000
vt 0.4498 0.8210 0.0000
vt 0.4008 0.7594 0.0000
vt 0.4097 0.6812 0.0000
vt 0.4713 0.6323 0.0000
vt 0.5495 0.6412 0.0000
vt 0.5996 0.7025 0.0000
vt 0.5907 0.7814 0.0000
vt 0.5905 0.7816 0.0000
vt 0.5284 0.8310 0.0000
vt 0.5282 0.8311 0.0000
vt 0.4494 0.8221 0.0000
vt 0.4491 0.8220 0.0000
vt 0.3997 0.7599 0.0000
vt 0.3997 0.7596 0.0000
vt 0.4086 0.6808 0.0000
vt 0.4088 0.6806 0.0000
vt 0.4708 0.6312 0.0000
vt 0.4711 0.6311 0.0000
vt 0.5499 0.6400 0.0000
vt 0.5502 0.6402 0.0000
vt 0.5996 0.7023 0.0000
vt 0.5510 0.6394 0.0000
vt 0.6005 0.7016 0.0000
vt 0.6008 0.7026 0.0000
vt 0.5918 0.7815 0.0000
vt 0.5913 0.7825 0.0000
vt 0.5291 0.8319 0.0000
vt 0.5281 0.8322 0.0000
vt 0.4492 0.8232 0.0000
vt 0.4483 0.8227 0.0000
vt 0.3988 0.7606 0.0000
vt 0.3985 0.7595 0.0000
vt 0.4075 0.6806 0.0000
vt 0.4080 0.6797 0.0000
vt 0.4702 0.6302 0.0000
vt 0.4712 0.6299 0.0000
vt 0.5501 0.6389 0.0000
# 129 texture coords

o Circle_straight
g Circle_straight
usemtl wire_169112156
s 1
f 1/1/1 2/2/2 3/3/3 4/4/4 5/5/5 6/6/6 7/7/7 8/8/8 
s 2
f 8/9/8 7/10/7 9/11/9 10/12/10 
s 4
f 7/10/7 6/13/6 11/14/11 9/11/9 
s 2
f 6/13/6 5/15/5 12/16/12 11/14/11 
s 4
f 5/15/5 4/17/4 13/18/13 12/16/12 
s 2
f 4/19/4 3/20/3 14/21/14 13/22/13 
s 4
f 3/20/3 2/23/2 15/24/15 14/21/14 
s 2
f 2/23/2 1/25/1 16/26/16 15/24/15 
s 4
f 1/25/1 8/9/8 10/12/10 16/26/16 
s 1
f 10/12/10 9/11/9 17/27/17 18/28/18 
f 9/11/9 11/14/11 19/29/19 17/27/17 
f 11/14/11 12/16/12 20/30/20 19/29/19 
f 12/16/12 13/18/13 21/31/21 20/30/20 
f 13/22/13 14/21/14 22/32/22 21/33/21 
f 14/21/14 15/24/15 23/34/23 22/32/22 
f 15/24/15 16/26/16 24/35/24 23/34/23 
f 16/26/16 10/12/10 18/28/18 24/35/24 
s 2
f 18/28/18 17/27/17 25/36/25 26/37/26 
s 4
f 17/27/17 19/29/19 27/38/27 25/36/25 
s 2
f 19/29/19 20/30/20 28/39/28 27/38/27 
s 4
f 20/30/20 21/31/21 29/40/29 28/39/28 
s 2
f 21/33/21 22/32/22 30/41/30 29/42/29 
s 4
f 22/32/22 23/34/23 31/43/31 30/41/30 
s 2
f 23/34/23 24/35/24 32/44/32 31/43/31 
s 4
f 24/35/24 18/28/18 26/37/26 32/44/32 
s 1
f 26/37/26 25/36/25 33/45/33 34/46/34 
f 25/36/25 27/38/27 35/47/35 33/45/33 
f 27/38/27 28/39/28 36/48/36 35/47/35 
f 28/39/28 29/40/29 37/49/37 36/48/36 
f 29/42/29 30/41/30 38/50/38 37/51/37 
f 30/41/30 31/43/31 39/52/39 38/50/38 
f 31/43/31 32/44/32 40/53/40 39/52/39 
f 32/44/32 26/37/26 34/46/34 40/53/40 
f 41/54/41 42/55/30 43/56/38 44/57/37 
f 42/55/30 45/58/42 46/59/43 43/56/38 
f 45/58/42 47/60/44 48/61/40 46/59/43 
f 47/60/44 49/62/45 50/63/46 48/61/40 
f 49/64/45 51/65/25 52/66/33 50/67/46 
f 51/65/25 53/68/47 54/69/48 52/66/33 
f 53/68/47 55/70/28 56/71/36 54/69/48 
f 55/70/28 41/54/41 44/57/37 56/71/36 
s 2
f 34/46/34 33/45/33 42/55/30 41/54/41 
s 4
f 33/45/33 35/47/35 45/58/42 42/55/30 
s 2
f 35/47/35 36/48/36 47/60/44 45/58/42 
s 4
f 36/48/36 37/49/37 49/62/45 47/60/44 
s 2
f 37/51/37 38/50/38 51/65/25 49/64/45 
s 4
f 38/50/38 39/52/39 53/68/47 51/65/25 
s 2
f 39/52/39 40/53/40 55/70/28 53/68/47 
s 4
f 40/53/40 34/46/34 41/54/41 55/70/28 
s 2
f 57/72/49 58/73/50 44/74/37 43/75/38 
s 4
f 58/73/50 59/76/51 56/77/36 44/74/37 
s 2
f 59/76/51 60/78/52 54/79/48 56/77/36 
s 4
f 60/78/52 61/80/53 52/81/33 54/79/48 
s 2
f 61/80/53 62/82/54 50/83/46 52/81/33 
s 4
f 62/84/54 63/85/55 48/86/40 50/87/46 
s 2
f 63/85/55 64/88/56 46/89/43 48/86/40 
s 4
f 64/88/56 57/72/49 43/75/38 46/89/43 
s 1
f 65/90/57 66/91/58 67/92/59 68/93/60 69/94/61 70/95/62 71/96/63 72/97/64 
f 66/91/58 65/90/57 73/98/65 74/99/66 
f 67/92/59 66/91/58 74/100/66 75/101/67 
f 68/93/60 67/92/59 75/102/67 76/103/68 
f 69/94/61 68/93/60 76/104/68 77/105/69 
f 70/95/62 69/94/61 77/106/69 78/107/70 
f 71/96/63 70/95/62 78/108/70 79/109/71 
f 72/97/64 71/96/63 79/110/71 80/111/72 
f 65/90/57 72/97/64 80/112/72 73/113/65 
s 2
f 58/114/50 57/115/49 73/113/65 80/112/72 
s 4
f 57/116/49 64/117/56 74/99/66 73/98/65 
s 2
f 64/118/56 63/119/55 75/101/67 74/100/66 
s 4
f 63/120/55 62/121/54 76/103/68 75/102/67 
s 2
f 62/122/54 61/123/53 77/105/69 76/104/68 
s 4
f 61/124/53 60/125/52 78/107/70 77/106/69 
s 2
f 60/126/52 59/127/51 79/109/71 78/108/70 
s 4
f 59/128/51 58/129/50 80/111/72 79/110/71 
# 74 polygons

