# 3ds Max Wavefront OBJ Exporter v0.99 - (c)2007 guruware
# File Created: 06.01.2024 22:39:06

mtllib Placa.mtl

#
# object Box002
#

v  19.7791 0.0000 -21.5394
v  19.7791 0.0000 -80.5945
v  59.1492 0.0000 -80.5945
v  59.1492 0.0000 -21.5394
v  19.7791 1.9685 -21.5394
v  59.1492 1.9685 -21.5394
v  59.1492 1.9685 -80.5945
v  19.7791 1.9685 -80.5945
# 8 vertices

vn -0.5774 -0.5774 0.5774
vn -0.5774 -0.5774 -0.5774
vn 0.5774 -0.5774 -0.5774
vn 0.5774 -0.5774 0.5774
vn -0.5774 0.5774 0.5774
vn 0.5774 0.5774 0.5774
vn 0.5774 0.5774 -0.5774
vn -0.5774 0.5774 -0.5774
# 8 vertex normals

vt 0.5197 0.5737 0.0000
vt 0.0220 0.5794 0.0000
vt 0.0182 0.2476 0.0000
vt 0.5159 0.2419 0.0000
vt 0.5158 0.6007 0.0000
vt 0.5120 0.9325 0.0000
vt 0.0143 0.9268 0.0000
vt 0.0181 0.5950 0.0000
vt 0.4241 0.0651 0.0000
vt 0.0923 0.0713 0.0000
vt 0.0920 0.0547 0.0000
vt 0.4238 0.0485 0.0000
vt 0.5164 0.1699 0.0000
vt 0.0189 0.1833 0.0000
vt 0.0184 0.1668 0.0000
vt 0.5160 0.1533 0.0000
vt 0.4300 0.1022 0.0000
vt 0.0982 0.1084 0.0000
vt 0.0979 0.0918 0.0000
vt 0.4297 0.0857 0.0000
vt 0.0213 0.2179 0.0000
vt 0.5189 0.2045 0.0000
vt 0.5193 0.2210 0.0000
vt 0.0218 0.2345 0.0000
# 24 texture coords

o Box002
g Box002
usemtl 01___Default
s 2
f 1/1/1 2/2/2 3/3/3 4/4/4 
s 4
f 5/5/5 6/6/6 7/7/7 8/8/8 
s 8
f 1/9/1 4/10/4 6/11/6 5/12/5 
s 16
f 4/13/4 3/14/3 7/15/7 6/16/6 
s 32
f 3/17/3 2/18/2 8/19/8 7/20/7 
s 64
f 2/21/2 1/22/1 5/23/5 8/24/8 
# 6 polygons

